<mxfile host="Electron" modified="2024-07-09T09:56:31.356Z" agent="Mozilla/5.0 (Macintosh; Intel Mac OS X 10_15_7) AppleWebKit/537.36 (KHTML, like Gecko) draw.io/24.2.5 Chrome/120.0.6099.109 Electron/28.1.0 Safari/537.36" etag="cMHF9L-vxcMoKyiP1asW" version="24.2.5" type="device">
  <diagram name="Page-1" id="DA_L7gIxfsma0G8jRVJv">
    <mxGraphModel dx="1804" dy="1717" grid="1" gridSize="10" guides="1" tooltips="1" connect="1" arrows="1" fold="1" page="1" pageScale="1" pageWidth="850" pageHeight="1100" math="0" shadow="0">
      <root>
        <mxCell id="0" />
        <mxCell id="1" parent="0" />
        <mxCell id="e1fa5iIgrvBEeiXZvAQY-6" style="edgeStyle=orthogonalEdgeStyle;rounded=0;orthogonalLoop=1;jettySize=auto;html=1;exitX=0.5;exitY=0;exitDx=0;exitDy=0;entryX=0.5;entryY=1;entryDx=0;entryDy=0;endArrow=none;endFill=0;" parent="1" source="e1fa5iIgrvBEeiXZvAQY-1" target="e1fa5iIgrvBEeiXZvAQY-2" edge="1">
          <mxGeometry relative="1" as="geometry" />
        </mxCell>
        <mxCell id="e1fa5iIgrvBEeiXZvAQY-189" style="edgeStyle=orthogonalEdgeStyle;rounded=0;orthogonalLoop=1;jettySize=auto;html=1;exitX=0.75;exitY=0;exitDx=0;exitDy=0;entryX=0.5;entryY=1;entryDx=0;entryDy=0;endArrow=none;endFill=0;" parent="1" source="e1fa5iIgrvBEeiXZvAQY-1" target="e1fa5iIgrvBEeiXZvAQY-10" edge="1">
          <mxGeometry relative="1" as="geometry" />
        </mxCell>
        <mxCell id="e1fa5iIgrvBEeiXZvAQY-1" value="user" style="whiteSpace=wrap;html=1;align=center;" parent="1" vertex="1">
          <mxGeometry x="150" y="170" width="350" height="160" as="geometry" />
        </mxCell>
        <mxCell id="e1fa5iIgrvBEeiXZvAQY-2" value="&lt;p style=&quot;margin: 0px; font-variant-numeric: normal; font-variant-east-asian: normal; font-variant-alternates: normal; font-kerning: auto; font-optical-sizing: auto; font-feature-settings: normal; font-variation-settings: normal; font-variant-position: normal; font-stretch: normal; font-size: 13px; line-height: normal; font-family: &amp;quot;Helvetica Neue&amp;quot;; text-align: start;&quot; class=&quot;p1&quot;&gt;&lt;b&gt;Email&lt;/b&gt;&lt;/p&gt;" style="ellipse;whiteSpace=wrap;html=1;align=center;" parent="1" vertex="1">
          <mxGeometry x="365" y="-195" width="80" height="38" as="geometry" />
        </mxCell>
        <mxCell id="e1fa5iIgrvBEeiXZvAQY-3" value="&lt;p style=&quot;margin: 0px; font-variant-numeric: normal; font-variant-east-asian: normal; font-variant-alternates: normal; font-kerning: auto; font-optical-sizing: auto; font-feature-settings: normal; font-variation-settings: normal; font-variant-position: normal; font-stretch: normal; font-size: 13px; line-height: normal; font-family: &amp;quot;Helvetica Neue&amp;quot;; text-align: start;&quot; class=&quot;p1&quot;&gt;&lt;b&gt;Username&lt;/b&gt;&lt;/p&gt;" style="ellipse;whiteSpace=wrap;html=1;align=center;" parent="1" vertex="1">
          <mxGeometry x="285" y="-44" width="80" height="38" as="geometry" />
        </mxCell>
        <mxCell id="e1fa5iIgrvBEeiXZvAQY-4" value="&lt;p style=&quot;margin: 0px; font-variant-numeric: normal; font-variant-east-asian: normal; font-variant-alternates: normal; font-kerning: auto; font-optical-sizing: auto; font-feature-settings: normal; font-variation-settings: normal; font-variant-position: normal; font-stretch: normal; font-size: 13px; line-height: normal; font-family: &amp;quot;Helvetica Neue&amp;quot;; text-align: start;&quot; class=&quot;p1&quot;&gt;&lt;b&gt;Password&lt;/b&gt;&lt;/p&gt;" style="ellipse;whiteSpace=wrap;html=1;align=center;" parent="1" vertex="1">
          <mxGeometry x="430" y="34" width="70" height="38" as="geometry" />
        </mxCell>
        <mxCell id="e1fa5iIgrvBEeiXZvAQY-5" value="&lt;p style=&quot;margin: 0px; font-variant-numeric: normal; font-variant-east-asian: normal; font-variant-alternates: normal; font-kerning: auto; font-optical-sizing: auto; font-feature-settings: normal; font-variation-settings: normal; font-variant-position: normal; font-stretch: normal; font-size: 13px; line-height: normal; font-family: &amp;quot;Helvetica Neue&amp;quot;; text-align: start;&quot; class=&quot;p1&quot;&gt;&lt;b&gt;Gender&lt;/b&gt;&lt;/p&gt;" style="ellipse;whiteSpace=wrap;html=1;align=center;" parent="1" vertex="1">
          <mxGeometry x="259" y="-145" width="80" height="40" as="geometry" />
        </mxCell>
        <mxCell id="e1fa5iIgrvBEeiXZvAQY-7" style="edgeStyle=orthogonalEdgeStyle;rounded=0;orthogonalLoop=1;jettySize=auto;html=1;exitX=0.458;exitY=-0.003;exitDx=0;exitDy=0;entryX=0.59;entryY=0.95;entryDx=0;entryDy=0;entryPerimeter=0;endArrow=none;endFill=0;exitPerimeter=0;" parent="1" source="e1fa5iIgrvBEeiXZvAQY-1" target="e1fa5iIgrvBEeiXZvAQY-3" edge="1">
          <mxGeometry relative="1" as="geometry" />
        </mxCell>
        <mxCell id="e1fa5iIgrvBEeiXZvAQY-8" style="edgeStyle=orthogonalEdgeStyle;rounded=0;orthogonalLoop=1;jettySize=auto;html=1;exitX=1;exitY=0;exitDx=0;exitDy=0;entryX=0.42;entryY=0.95;entryDx=0;entryDy=0;entryPerimeter=0;endArrow=none;endFill=0;" parent="1" source="e1fa5iIgrvBEeiXZvAQY-1" target="e1fa5iIgrvBEeiXZvAQY-4" edge="1">
          <mxGeometry relative="1" as="geometry" />
        </mxCell>
        <mxCell id="e1fa5iIgrvBEeiXZvAQY-10" value="&lt;p style=&quot;margin: 0px; font-variant-numeric: normal; font-variant-east-asian: normal; font-variant-alternates: normal; font-kerning: auto; font-optical-sizing: auto; font-feature-settings: normal; font-variation-settings: normal; font-variant-position: normal; font-stretch: normal; font-size: 13px; line-height: normal; font-family: &amp;quot;Helvetica Neue&amp;quot;; text-align: start;&quot; class=&quot;p1&quot;&gt;&lt;b&gt;UserID&lt;/b&gt;&lt;/p&gt;" style="ellipse;whiteSpace=wrap;html=1;align=center;fontStyle=4;" parent="1" vertex="1">
          <mxGeometry x="339" y="12" width="100" height="40" as="geometry" />
        </mxCell>
        <mxCell id="e1fa5iIgrvBEeiXZvAQY-23" style="edgeStyle=orthogonalEdgeStyle;rounded=0;orthogonalLoop=1;jettySize=auto;html=1;exitX=0;exitY=0;exitDx=0;exitDy=0;entryX=0.5;entryY=1;entryDx=0;entryDy=0;endArrow=none;endFill=0;" parent="1" source="e1fa5iIgrvBEeiXZvAQY-14" target="e1fa5iIgrvBEeiXZvAQY-22" edge="1">
          <mxGeometry relative="1" as="geometry" />
        </mxCell>
        <mxCell id="e1fa5iIgrvBEeiXZvAQY-25" style="edgeStyle=orthogonalEdgeStyle;rounded=0;orthogonalLoop=1;jettySize=auto;html=1;exitX=0.5;exitY=0;exitDx=0;exitDy=0;entryX=0;entryY=1;entryDx=0;entryDy=0;endArrow=none;endFill=0;" parent="1" source="e1fa5iIgrvBEeiXZvAQY-14" target="e1fa5iIgrvBEeiXZvAQY-19" edge="1">
          <mxGeometry relative="1" as="geometry" />
        </mxCell>
        <mxCell id="e1fa5iIgrvBEeiXZvAQY-28" style="edgeStyle=orthogonalEdgeStyle;rounded=0;orthogonalLoop=1;jettySize=auto;html=1;exitX=0;exitY=0.5;exitDx=0;exitDy=0;entryX=1;entryY=0.5;entryDx=0;entryDy=0;endArrow=none;endFill=0;" parent="1" source="e1fa5iIgrvBEeiXZvAQY-14" target="e1fa5iIgrvBEeiXZvAQY-20" edge="1">
          <mxGeometry relative="1" as="geometry" />
        </mxCell>
        <mxCell id="e1fa5iIgrvBEeiXZvAQY-29" style="edgeStyle=orthogonalEdgeStyle;rounded=0;orthogonalLoop=1;jettySize=auto;html=1;exitX=0;exitY=0.25;exitDx=0;exitDy=0;entryX=1;entryY=1;entryDx=0;entryDy=0;endArrow=none;endFill=0;" parent="1" source="e1fa5iIgrvBEeiXZvAQY-14" edge="1">
          <mxGeometry relative="1" as="geometry">
            <mxPoint x="-506.64466094067257" y="48.14213562373061" as="targetPoint" />
          </mxGeometry>
        </mxCell>
        <mxCell id="e1fa5iIgrvBEeiXZvAQY-30" style="edgeStyle=orthogonalEdgeStyle;rounded=0;orthogonalLoop=1;jettySize=auto;html=1;exitX=1;exitY=0.5;exitDx=0;exitDy=0;entryX=0;entryY=0.5;entryDx=0;entryDy=0;endArrow=none;endFill=0;" parent="1" source="e1fa5iIgrvBEeiXZvAQY-14" target="e1fa5iIgrvBEeiXZvAQY-16" edge="1">
          <mxGeometry relative="1" as="geometry" />
        </mxCell>
        <mxCell id="e1fa5iIgrvBEeiXZvAQY-39" style="edgeStyle=orthogonalEdgeStyle;rounded=0;orthogonalLoop=1;jettySize=auto;html=1;exitX=0.75;exitY=0;exitDx=0;exitDy=0;endArrow=none;endFill=0;" parent="1" source="e1fa5iIgrvBEeiXZvAQY-14" edge="1">
          <mxGeometry relative="1" as="geometry">
            <mxPoint x="-265" y="-20" as="targetPoint" />
          </mxGeometry>
        </mxCell>
        <mxCell id="e1fa5iIgrvBEeiXZvAQY-14" value="&lt;p style=&quot;margin: 0px; font-variant-numeric: normal; font-variant-east-asian: normal; font-variant-alternates: normal; font-kerning: auto; font-optical-sizing: auto; font-feature-settings: normal; font-variation-settings: normal; font-variant-position: normal; font-stretch: normal; font-size: 13px; line-height: normal; font-family: &amp;quot;Helvetica Neue&amp;quot;; text-align: start;&quot; class=&quot;p1&quot;&gt;&lt;b&gt;Health Information&lt;/b&gt;&lt;/p&gt;" style="shape=ext;margin=3;double=1;whiteSpace=wrap;html=1;align=center;" parent="1" vertex="1">
          <mxGeometry x="-422" y="64" width="135" height="40" as="geometry" />
        </mxCell>
        <mxCell id="e1fa5iIgrvBEeiXZvAQY-15" value="dietaryRestraction" style="ellipse;whiteSpace=wrap;html=1;align=center;" parent="1" vertex="1">
          <mxGeometry x="-422" y="-76" width="100" height="40" as="geometry" />
        </mxCell>
        <mxCell id="e1fa5iIgrvBEeiXZvAQY-16" value="TypesofNutrition" style="ellipse;whiteSpace=wrap;html=1;align=center;" parent="1" vertex="1">
          <mxGeometry x="-242" y="64" width="100" height="40" as="geometry" />
        </mxCell>
        <mxCell id="e1fa5iIgrvBEeiXZvAQY-17" value="A1C Reading" style="ellipse;whiteSpace=wrap;html=1;align=center;" parent="1" vertex="1">
          <mxGeometry x="-162" y="14" width="100" height="40" as="geometry" />
        </mxCell>
        <mxCell id="e1fa5iIgrvBEeiXZvAQY-19" value="age" style="ellipse;whiteSpace=wrap;html=1;align=center;" parent="1" vertex="1">
          <mxGeometry x="-322" y="-56" width="100" height="40" as="geometry" />
        </mxCell>
        <mxCell id="e1fa5iIgrvBEeiXZvAQY-20" value="Weight&amp;nbsp;" style="ellipse;whiteSpace=wrap;html=1;align=center;" parent="1" vertex="1">
          <mxGeometry x="-582" y="84" width="100" height="40" as="geometry" />
        </mxCell>
        <mxCell id="e1fa5iIgrvBEeiXZvAQY-21" value="height" style="ellipse;whiteSpace=wrap;html=1;align=center;" parent="1" vertex="1">
          <mxGeometry x="-578" y="14" width="100" height="40" as="geometry" />
        </mxCell>
        <mxCell id="e1fa5iIgrvBEeiXZvAQY-22" value="daysAvailable" style="ellipse;whiteSpace=wrap;html=1;align=center;" parent="1" vertex="1">
          <mxGeometry x="-502" y="-6" width="100" height="40" as="geometry" />
        </mxCell>
        <mxCell id="e1fa5iIgrvBEeiXZvAQY-24" style="edgeStyle=orthogonalEdgeStyle;rounded=0;orthogonalLoop=1;jettySize=auto;html=1;exitX=0.25;exitY=0;exitDx=0;exitDy=0;entryX=0.3;entryY=0.9;entryDx=0;entryDy=0;entryPerimeter=0;endArrow=none;endFill=0;" parent="1" source="e1fa5iIgrvBEeiXZvAQY-14" target="e1fa5iIgrvBEeiXZvAQY-15" edge="1">
          <mxGeometry relative="1" as="geometry" />
        </mxCell>
        <mxCell id="e1fa5iIgrvBEeiXZvAQY-32" style="edgeStyle=orthogonalEdgeStyle;rounded=0;orthogonalLoop=1;jettySize=auto;html=1;exitX=1;exitY=0;exitDx=0;exitDy=0;entryX=0;entryY=0.325;entryDx=0;entryDy=0;entryPerimeter=0;endArrow=none;endFill=0;" parent="1" source="e1fa5iIgrvBEeiXZvAQY-14" target="e1fa5iIgrvBEeiXZvAQY-17" edge="1">
          <mxGeometry relative="1" as="geometry" />
        </mxCell>
        <mxCell id="e1fa5iIgrvBEeiXZvAQY-35" style="edgeStyle=orthogonalEdgeStyle;rounded=0;orthogonalLoop=1;jettySize=auto;html=1;endArrow=ERmandOne;endFill=0;" parent="1" source="e1fa5iIgrvBEeiXZvAQY-34" target="e1fa5iIgrvBEeiXZvAQY-14" edge="1">
          <mxGeometry relative="1" as="geometry" />
        </mxCell>
        <mxCell id="e1fa5iIgrvBEeiXZvAQY-36" style="edgeStyle=orthogonalEdgeStyle;rounded=0;orthogonalLoop=1;jettySize=auto;html=1;entryX=0.008;entryY=0.919;entryDx=0;entryDy=0;endArrow=ERmandOne;endFill=0;exitX=1;exitY=0.5;exitDx=0;exitDy=0;entryPerimeter=0;" parent="1" source="e1fa5iIgrvBEeiXZvAQY-34" target="e1fa5iIgrvBEeiXZvAQY-1" edge="1">
          <mxGeometry relative="1" as="geometry" />
        </mxCell>
        <mxCell id="e1fa5iIgrvBEeiXZvAQY-34" value="Fillout" style="shape=rhombus;perimeter=rhombusPerimeter;whiteSpace=wrap;html=1;align=center;" parent="1" vertex="1">
          <mxGeometry x="-200" y="150" width="80" height="50" as="geometry" />
        </mxCell>
        <mxCell id="e1fa5iIgrvBEeiXZvAQY-38" value="&lt;p style=&quot;margin: 0px; font-variant-numeric: normal; font-variant-east-asian: normal; font-variant-alternates: normal; font-kerning: auto; font-optical-sizing: auto; font-feature-settings: normal; font-variation-settings: normal; font-variant-position: normal; font-stretch: normal; font-size: 13px; line-height: normal; font-family: &amp;quot;Helvetica Neue&amp;quot;; text-align: start;&quot; class=&quot;p1&quot;&gt;&lt;b&gt;Types of Nutrition&lt;/b&gt;&lt;/p&gt;" style="shape=ext;margin=3;double=1;whiteSpace=wrap;html=1;align=center;" parent="1" vertex="1">
          <mxGeometry x="-177" y="623" width="130" height="40" as="geometry" />
        </mxCell>
        <mxCell id="e1fa5iIgrvBEeiXZvAQY-201" style="edgeStyle=orthogonalEdgeStyle;rounded=0;orthogonalLoop=1;jettySize=auto;html=1;exitX=1;exitY=0;exitDx=0;exitDy=0;entryX=0;entryY=0.75;entryDx=0;entryDy=0;endArrow=none;endFill=0;" parent="1" source="e1fa5iIgrvBEeiXZvAQY-41" target="e1fa5iIgrvBEeiXZvAQY-14" edge="1">
          <mxGeometry relative="1" as="geometry" />
        </mxCell>
        <mxCell id="e1fa5iIgrvBEeiXZvAQY-41" value="&lt;p style=&quot;margin: 0px; font-variant-numeric: normal; font-variant-east-asian: normal; font-variant-alternates: normal; font-kerning: auto; font-optical-sizing: auto; font-feature-settings: normal; font-variation-settings: normal; font-variant-position: normal; font-stretch: normal; font-size: 13px; line-height: normal; font-family: &amp;quot;Helvetica Neue&amp;quot;; text-align: start;&quot; class=&quot;p1&quot;&gt;&lt;b&gt;HealthInfoID&lt;/b&gt;&lt;/p&gt;" style="ellipse;whiteSpace=wrap;html=1;align=center;fontStyle=4;" parent="1" vertex="1">
          <mxGeometry x="-566" y="155" width="100" height="40" as="geometry" />
        </mxCell>
        <mxCell id="e1fa5iIgrvBEeiXZvAQY-43" value="&lt;p style=&quot;margin: 0px; font-variant-numeric: normal; font-variant-east-asian: normal; font-variant-alternates: normal; font-kerning: auto; font-optical-sizing: auto; font-feature-settings: normal; font-variation-settings: normal; font-variant-position: normal; font-stretch: normal; font-size: 13px; line-height: normal; font-family: &amp;quot;Helvetica Neue&amp;quot;; text-align: start;&quot; class=&quot;p1&quot;&gt;&lt;b&gt;NutritionTypeID (PK)&lt;/b&gt;&lt;/p&gt;" style="ellipse;whiteSpace=wrap;html=1;align=center;fontStyle=4;" parent="1" vertex="1">
          <mxGeometry x="-296" y="690" width="140" height="40" as="geometry" />
        </mxCell>
        <mxCell id="e1fa5iIgrvBEeiXZvAQY-165" style="edgeStyle=orthogonalEdgeStyle;rounded=0;orthogonalLoop=1;jettySize=auto;html=1;exitX=0;exitY=1;exitDx=0;exitDy=0;entryX=0.5;entryY=0;entryDx=0;entryDy=0;endArrow=none;endFill=0;" parent="1" source="e1fa5iIgrvBEeiXZvAQY-47" target="e1fa5iIgrvBEeiXZvAQY-48" edge="1">
          <mxGeometry relative="1" as="geometry" />
        </mxCell>
        <mxCell id="e1fa5iIgrvBEeiXZvAQY-166" style="edgeStyle=orthogonalEdgeStyle;rounded=0;orthogonalLoop=1;jettySize=auto;html=1;exitX=0.5;exitY=1;exitDx=0;exitDy=0;entryX=0.43;entryY=-0.018;entryDx=0;entryDy=0;endArrow=none;endFill=0;entryPerimeter=0;" parent="1" source="e1fa5iIgrvBEeiXZvAQY-47" target="e1fa5iIgrvBEeiXZvAQY-223" edge="1">
          <mxGeometry relative="1" as="geometry">
            <mxPoint x="189.99999999999977" y="740" as="targetPoint" />
          </mxGeometry>
        </mxCell>
        <mxCell id="e1fa5iIgrvBEeiXZvAQY-47" value="&lt;p style=&quot;margin: 0px; font-variant-numeric: normal; font-variant-east-asian: normal; font-variant-alternates: normal; font-kerning: auto; font-optical-sizing: auto; font-feature-settings: normal; font-variation-settings: normal; font-variant-position: normal; font-stretch: normal; font-size: 13px; line-height: normal; font-family: &amp;quot;Helvetica Neue&amp;quot;; text-align: start;&quot; class=&quot;p1&quot;&gt;&lt;b&gt;Types of Workout&lt;/b&gt;&lt;/p&gt;" style="shape=ext;margin=3;double=1;whiteSpace=wrap;html=1;align=center;" parent="1" vertex="1">
          <mxGeometry x="72" y="636" width="130" height="40" as="geometry" />
        </mxCell>
        <mxCell id="e1fa5iIgrvBEeiXZvAQY-48" value="&lt;p style=&quot;margin: 0px; font-variant-numeric: normal; font-variant-east-asian: normal; font-variant-alternates: normal; font-kerning: auto; font-optical-sizing: auto; font-feature-settings: normal; font-variation-settings: normal; font-variant-position: normal; font-stretch: normal; font-size: 13px; line-height: normal; font-family: &amp;quot;Helvetica Neue&amp;quot;; text-align: start;&quot; class=&quot;p1&quot;&gt;&lt;b&gt;WorkoutTypeID&lt;/b&gt;&lt;/p&gt;" style="ellipse;whiteSpace=wrap;html=1;align=center;fontStyle=4;" parent="1" vertex="1">
          <mxGeometry x="72" y="790" width="100" height="40" as="geometry" />
        </mxCell>
        <mxCell id="e1fa5iIgrvBEeiXZvAQY-54" style="edgeStyle=orthogonalEdgeStyle;rounded=0;orthogonalLoop=1;jettySize=auto;html=1;exitX=0;exitY=0;exitDx=0;exitDy=0;entryX=0.5;entryY=1;entryDx=0;entryDy=0;endArrow=none;endFill=0;" parent="1" source="e1fa5iIgrvBEeiXZvAQY-52" target="e1fa5iIgrvBEeiXZvAQY-53" edge="1">
          <mxGeometry relative="1" as="geometry" />
        </mxCell>
        <mxCell id="e1fa5iIgrvBEeiXZvAQY-56" style="edgeStyle=orthogonalEdgeStyle;rounded=0;orthogonalLoop=1;jettySize=auto;html=1;exitX=0.5;exitY=0;exitDx=0;exitDy=0;entryX=0.5;entryY=1;entryDx=0;entryDy=0;endArrow=none;endFill=0;" parent="1" source="e1fa5iIgrvBEeiXZvAQY-52" target="e1fa5iIgrvBEeiXZvAQY-55" edge="1">
          <mxGeometry relative="1" as="geometry" />
        </mxCell>
        <mxCell id="e1fa5iIgrvBEeiXZvAQY-58" style="edgeStyle=orthogonalEdgeStyle;rounded=0;orthogonalLoop=1;jettySize=auto;html=1;exitX=1;exitY=0;exitDx=0;exitDy=0;entryX=0;entryY=1;entryDx=0;entryDy=0;endArrow=none;endFill=0;" parent="1" source="e1fa5iIgrvBEeiXZvAQY-52" target="e1fa5iIgrvBEeiXZvAQY-57" edge="1">
          <mxGeometry relative="1" as="geometry" />
        </mxCell>
        <mxCell id="e1fa5iIgrvBEeiXZvAQY-52" value="&lt;p style=&quot;margin: 0px; font-variant-numeric: normal; font-variant-east-asian: normal; font-variant-alternates: normal; font-kerning: auto; font-optical-sizing: auto; font-feature-settings: normal; font-variation-settings: normal; font-variant-position: normal; font-stretch: normal; font-size: 13px; line-height: normal; font-family: &amp;quot;Helvetica Neue&amp;quot;; text-align: start;&quot; class=&quot;p1&quot;&gt;&lt;b&gt;Exercises&lt;/b&gt;&lt;/p&gt;" style="shape=ext;margin=3;double=1;whiteSpace=wrap;html=1;align=center;" parent="1" vertex="1">
          <mxGeometry x="650" y="611" width="100" height="40" as="geometry" />
        </mxCell>
        <mxCell id="e1fa5iIgrvBEeiXZvAQY-53" value="&lt;p style=&quot;margin: 0px; font-variant-numeric: normal; font-variant-east-asian: normal; font-variant-alternates: normal; font-kerning: auto; font-optical-sizing: auto; font-feature-settings: normal; font-variation-settings: normal; font-variant-position: normal; font-stretch: normal; font-size: 13px; line-height: normal; font-family: &amp;quot;Helvetica Neue&amp;quot;; text-align: start;&quot; class=&quot;p1&quot;&gt;&lt;b&gt;WorkoutID&lt;/b&gt;&lt;/p&gt;" style="ellipse;whiteSpace=wrap;html=1;align=center;fontStyle=4;" parent="1" vertex="1">
          <mxGeometry x="610" y="497" width="100" height="40" as="geometry" />
        </mxCell>
        <mxCell id="e1fa5iIgrvBEeiXZvAQY-55" value="&lt;p style=&quot;margin: 0px; font-variant-numeric: normal; font-variant-east-asian: normal; font-variant-alternates: normal; font-kerning: auto; font-optical-sizing: auto; font-feature-settings: normal; font-variation-settings: normal; font-variant-position: normal; font-stretch: normal; font-size: 13px; line-height: normal; font-family: &amp;quot;Helvetica Neue&amp;quot;; text-align: start;&quot; class=&quot;p1&quot;&gt;&lt;b&gt;WorkoutName&lt;/b&gt;&lt;/p&gt;" style="ellipse;whiteSpace=wrap;html=1;align=center;" parent="1" vertex="1">
          <mxGeometry x="685" y="551" width="100" height="30" as="geometry" />
        </mxCell>
        <mxCell id="e1fa5iIgrvBEeiXZvAQY-57" value="&lt;p style=&quot;margin: 0px; font-variant-numeric: normal; font-variant-east-asian: normal; font-variant-alternates: normal; font-kerning: auto; font-optical-sizing: auto; font-feature-settings: normal; font-variation-settings: normal; font-variant-position: normal; font-stretch: normal; font-size: 13px; line-height: normal; font-family: &amp;quot;Helvetica Neue&amp;quot;; text-align: start;&quot; class=&quot;p1&quot;&gt;&lt;b&gt;Duration&lt;/b&gt;&lt;/p&gt;" style="ellipse;whiteSpace=wrap;html=1;align=center;" parent="1" vertex="1">
          <mxGeometry x="775" y="571" width="100" height="40" as="geometry" />
        </mxCell>
        <mxCell id="e1fa5iIgrvBEeiXZvAQY-61" style="edgeStyle=orthogonalEdgeStyle;rounded=0;orthogonalLoop=1;jettySize=auto;html=1;exitX=0;exitY=0;exitDx=0;exitDy=0;entryX=0.5;entryY=1;entryDx=0;entryDy=0;endArrow=none;endFill=0;" parent="1" source="e1fa5iIgrvBEeiXZvAQY-59" target="e1fa5iIgrvBEeiXZvAQY-60" edge="1">
          <mxGeometry relative="1" as="geometry" />
        </mxCell>
        <mxCell id="e1fa5iIgrvBEeiXZvAQY-67" style="edgeStyle=orthogonalEdgeStyle;rounded=0;orthogonalLoop=1;jettySize=auto;html=1;exitX=1;exitY=0;exitDx=0;exitDy=0;endArrow=none;endFill=0;" parent="1" source="e1fa5iIgrvBEeiXZvAQY-59" target="e1fa5iIgrvBEeiXZvAQY-64" edge="1">
          <mxGeometry relative="1" as="geometry" />
        </mxCell>
        <mxCell id="e1fa5iIgrvBEeiXZvAQY-68" style="edgeStyle=orthogonalEdgeStyle;rounded=0;orthogonalLoop=1;jettySize=auto;html=1;exitX=0.5;exitY=0;exitDx=0;exitDy=0;endArrow=none;endFill=0;" parent="1" source="e1fa5iIgrvBEeiXZvAQY-59" target="e1fa5iIgrvBEeiXZvAQY-63" edge="1">
          <mxGeometry relative="1" as="geometry" />
        </mxCell>
        <mxCell id="e1fa5iIgrvBEeiXZvAQY-59" value="&lt;p style=&quot;margin: 0px; font-variant-numeric: normal; font-variant-east-asian: normal; font-variant-alternates: normal; font-kerning: auto; font-optical-sizing: auto; font-feature-settings: normal; font-variation-settings: normal; font-variant-position: normal; font-stretch: normal; font-size: 13px; line-height: normal; font-family: &amp;quot;Helvetica Neue&amp;quot;; text-align: start;&quot; class=&quot;p1&quot;&gt;&lt;b&gt;Recipe&lt;/b&gt;&lt;/p&gt;" style="shape=ext;margin=3;double=1;whiteSpace=wrap;html=1;align=center;" parent="1" vertex="1">
          <mxGeometry x="919" y="517" width="100" height="40" as="geometry" />
        </mxCell>
        <mxCell id="e1fa5iIgrvBEeiXZvAQY-60" value="&lt;p style=&quot;margin: 0px; font-variant-numeric: normal; font-variant-east-asian: normal; font-variant-alternates: normal; font-kerning: auto; font-optical-sizing: auto; font-feature-settings: normal; font-variation-settings: normal; font-variant-position: normal; font-stretch: normal; font-size: 13px; line-height: normal; font-family: &amp;quot;Helvetica Neue&amp;quot;; text-align: start;&quot; class=&quot;p1&quot;&gt;&lt;b&gt;RecipeID&lt;/b&gt;&lt;/p&gt;" style="ellipse;whiteSpace=wrap;html=1;align=center;fontStyle=4;" parent="1" vertex="1">
          <mxGeometry x="859" y="407" width="100" height="40" as="geometry" />
        </mxCell>
        <mxCell id="e1fa5iIgrvBEeiXZvAQY-63" value="&lt;p style=&quot;margin: 0px; font-variant-numeric: normal; font-variant-east-asian: normal; font-variant-alternates: normal; font-kerning: auto; font-optical-sizing: auto; font-feature-settings: normal; font-variation-settings: normal; font-variant-position: normal; font-stretch: normal; font-size: 13px; line-height: normal; font-family: &amp;quot;Helvetica Neue&amp;quot;; text-align: start;&quot; class=&quot;p1&quot;&gt;&lt;b&gt;PreparationTime&lt;/b&gt;&lt;/p&gt;" style="ellipse;whiteSpace=wrap;html=1;align=center;" parent="1" vertex="1">
          <mxGeometry x="1024" y="402" width="100" height="40" as="geometry" />
        </mxCell>
        <mxCell id="e1fa5iIgrvBEeiXZvAQY-64" value="&lt;p style=&quot;margin: 0px; font-variant-numeric: normal; font-variant-east-asian: normal; font-variant-alternates: normal; font-kerning: auto; font-optical-sizing: auto; font-feature-settings: normal; font-variation-settings: normal; font-variant-position: normal; font-stretch: normal; font-size: 13px; line-height: normal; font-family: &amp;quot;Helvetica Neue&amp;quot;; text-align: start;&quot; class=&quot;p1&quot;&gt;&lt;b&gt;IngredientList&lt;/b&gt;&lt;/p&gt;" style="ellipse;whiteSpace=wrap;html=1;align=center;" parent="1" vertex="1">
          <mxGeometry x="1049" y="487" width="100" height="40" as="geometry" />
        </mxCell>
        <mxCell id="e1fa5iIgrvBEeiXZvAQY-65" value="&lt;p style=&quot;margin: 0px; font-variant-numeric: normal; font-variant-east-asian: normal; font-variant-alternates: normal; font-kerning: auto; font-optical-sizing: auto; font-feature-settings: normal; font-variation-settings: normal; font-variant-position: normal; font-stretch: normal; font-size: 13px; line-height: normal; font-family: &amp;quot;Helvetica Neue&amp;quot;; text-align: start;&quot; class=&quot;p1&quot;&gt;&lt;b&gt;CookingTime&lt;/b&gt;&lt;/p&gt;" style="ellipse;whiteSpace=wrap;html=1;align=center;" parent="1" vertex="1">
          <mxGeometry x="959" y="367" width="100" height="40" as="geometry" />
        </mxCell>
        <mxCell id="e1fa5iIgrvBEeiXZvAQY-66" style="edgeStyle=orthogonalEdgeStyle;rounded=0;orthogonalLoop=1;jettySize=auto;html=1;exitX=0.25;exitY=0;exitDx=0;exitDy=0;entryX=0.22;entryY=0.95;entryDx=0;entryDy=0;entryPerimeter=0;endArrow=none;endFill=0;" parent="1" source="e1fa5iIgrvBEeiXZvAQY-59" target="e1fa5iIgrvBEeiXZvAQY-65" edge="1">
          <mxGeometry relative="1" as="geometry" />
        </mxCell>
        <mxCell id="e1fa5iIgrvBEeiXZvAQY-73" style="edgeStyle=orthogonalEdgeStyle;rounded=0;orthogonalLoop=1;jettySize=auto;html=1;exitX=0.5;exitY=0;exitDx=0;exitDy=0;endArrow=none;endFill=0;" parent="1" source="e1fa5iIgrvBEeiXZvAQY-69" target="e1fa5iIgrvBEeiXZvAQY-70" edge="1">
          <mxGeometry relative="1" as="geometry" />
        </mxCell>
        <mxCell id="e1fa5iIgrvBEeiXZvAQY-69" value="&lt;p style=&quot;margin: 0px; font-variant-numeric: normal; font-variant-east-asian: normal; font-variant-alternates: normal; font-kerning: auto; font-optical-sizing: auto; font-feature-settings: normal; font-variation-settings: normal; font-variant-position: normal; font-stretch: normal; font-size: 13px; line-height: normal; font-family: &amp;quot;Helvetica Neue&amp;quot;; text-align: start;&quot; class=&quot;p1&quot;&gt;&lt;b&gt;personalNutritionPlan&lt;/b&gt;&lt;/p&gt;" style="shape=ext;margin=3;double=1;whiteSpace=wrap;html=1;align=center;" parent="1" vertex="1">
          <mxGeometry x="888" y="2" width="160" height="40" as="geometry" />
        </mxCell>
        <mxCell id="e1fa5iIgrvBEeiXZvAQY-70" value="&lt;p style=&quot;margin: 0px; font-variant-numeric: normal; font-variant-east-asian: normal; font-variant-alternates: normal; font-kerning: auto; font-optical-sizing: auto; font-feature-settings: normal; font-variation-settings: normal; font-variant-position: normal; font-stretch: normal; font-size: 13px; line-height: normal; font-family: &amp;quot;Helvetica Neue&amp;quot;; text-align: start;&quot; class=&quot;p1&quot;&gt;&lt;b&gt;PlanDetails&lt;/b&gt;&lt;/p&gt;" style="ellipse;whiteSpace=wrap;html=1;align=center;" parent="1" vertex="1">
          <mxGeometry x="1019" y="-78" width="100" height="40" as="geometry" />
        </mxCell>
        <mxCell id="e1fa5iIgrvBEeiXZvAQY-71" value="&lt;p style=&quot;margin: 0px; font-variant-numeric: normal; font-variant-east-asian: normal; font-variant-alternates: normal; font-kerning: auto; font-optical-sizing: auto; font-feature-settings: normal; font-variation-settings: normal; font-variant-position: normal; font-stretch: normal; font-size: 13px; line-height: normal; font-family: &amp;quot;Helvetica Neue&amp;quot;; text-align: start;&quot; class=&quot;p1&quot;&gt;&lt;b&gt;PlanID&lt;/b&gt;&lt;/p&gt;" style="ellipse;whiteSpace=wrap;html=1;align=center;fontStyle=4;" parent="1" vertex="1">
          <mxGeometry x="870" y="-78" width="100" height="40" as="geometry" />
        </mxCell>
        <mxCell id="e1fa5iIgrvBEeiXZvAQY-72" style="edgeStyle=orthogonalEdgeStyle;rounded=0;orthogonalLoop=1;jettySize=auto;html=1;exitX=0;exitY=0;exitDx=0;exitDy=0;entryX=0.57;entryY=0.975;entryDx=0;entryDy=0;entryPerimeter=0;endArrow=none;endFill=0;" parent="1" source="e1fa5iIgrvBEeiXZvAQY-69" target="e1fa5iIgrvBEeiXZvAQY-71" edge="1">
          <mxGeometry relative="1" as="geometry" />
        </mxCell>
        <mxCell id="e1fa5iIgrvBEeiXZvAQY-78" style="edgeStyle=orthogonalEdgeStyle;rounded=0;orthogonalLoop=1;jettySize=auto;html=1;exitX=0.5;exitY=0;exitDx=0;exitDy=0;endArrow=none;endFill=0;" parent="1" source="e1fa5iIgrvBEeiXZvAQY-74" target="e1fa5iIgrvBEeiXZvAQY-76" edge="1">
          <mxGeometry relative="1" as="geometry" />
        </mxCell>
        <mxCell id="e1fa5iIgrvBEeiXZvAQY-74" value="&lt;p style=&quot;margin: 0px; font-variant-numeric: normal; font-variant-east-asian: normal; font-variant-alternates: normal; font-kerning: auto; font-optical-sizing: auto; font-feature-settings: normal; font-variation-settings: normal; font-variant-position: normal; font-stretch: normal; font-size: 13px; line-height: normal; font-family: &amp;quot;Helvetica Neue&amp;quot;; text-align: start;&quot; class=&quot;p1&quot;&gt;&lt;b&gt;Personalfitnessplan&lt;/b&gt;&lt;/p&gt;" style="shape=ext;margin=3;double=1;whiteSpace=wrap;html=1;align=center;" parent="1" vertex="1">
          <mxGeometry x="485" y="-259" width="155" height="40" as="geometry" />
        </mxCell>
        <mxCell id="e1fa5iIgrvBEeiXZvAQY-75" value="&lt;p style=&quot;margin: 0px; font-variant-numeric: normal; font-variant-east-asian: normal; font-variant-alternates: normal; font-kerning: auto; font-optical-sizing: auto; font-feature-settings: normal; font-variation-settings: normal; font-variant-position: normal; font-stretch: normal; font-size: 13px; line-height: normal; font-family: &amp;quot;Helvetica Neue&amp;quot;; text-align: start;&quot; class=&quot;p1&quot;&gt;&lt;b&gt;FitnessPlanID&lt;/b&gt;&lt;/p&gt;" style="ellipse;whiteSpace=wrap;html=1;align=center;fontStyle=4;" parent="1" vertex="1">
          <mxGeometry x="400" y="-339" width="100" height="40" as="geometry" />
        </mxCell>
        <mxCell id="e1fa5iIgrvBEeiXZvAQY-76" value="&lt;p style=&quot;margin: 0px; font-variant-numeric: normal; font-variant-east-asian: normal; font-variant-alternates: normal; font-kerning: auto; font-optical-sizing: auto; font-feature-settings: normal; font-variation-settings: normal; font-variant-position: normal; font-stretch: normal; font-size: 13px; line-height: normal; font-family: &amp;quot;Helvetica Neue&amp;quot;; text-align: start;&quot; class=&quot;p1&quot;&gt;&lt;b&gt;WorkoutDetails&lt;/b&gt;&lt;/p&gt;" style="ellipse;whiteSpace=wrap;html=1;align=center;" parent="1" vertex="1">
          <mxGeometry x="510" y="-359" width="100" height="40" as="geometry" />
        </mxCell>
        <mxCell id="e1fa5iIgrvBEeiXZvAQY-77" style="edgeStyle=orthogonalEdgeStyle;rounded=0;orthogonalLoop=1;jettySize=auto;html=1;exitX=0;exitY=0;exitDx=0;exitDy=0;entryX=0.6;entryY=0.95;entryDx=0;entryDy=0;entryPerimeter=0;endArrow=none;endFill=0;" parent="1" source="e1fa5iIgrvBEeiXZvAQY-74" target="e1fa5iIgrvBEeiXZvAQY-75" edge="1">
          <mxGeometry relative="1" as="geometry" />
        </mxCell>
        <mxCell id="e1fa5iIgrvBEeiXZvAQY-175" style="edgeStyle=orthogonalEdgeStyle;rounded=0;orthogonalLoop=1;jettySize=auto;html=1;exitX=0.25;exitY=1;exitDx=0;exitDy=0;entryX=0.5;entryY=0;entryDx=0;entryDy=0;endArrow=none;endFill=0;" parent="1" source="e1fa5iIgrvBEeiXZvAQY-79" target="e1fa5iIgrvBEeiXZvAQY-81" edge="1">
          <mxGeometry relative="1" as="geometry" />
        </mxCell>
        <mxCell id="e1fa5iIgrvBEeiXZvAQY-79" value="&lt;p style=&quot;margin: 0px; font-variant-numeric: normal; font-variant-east-asian: normal; font-variant-alternates: normal; font-kerning: auto; font-optical-sizing: auto; font-feature-settings: normal; font-variation-settings: normal; font-variant-position: normal; font-stretch: normal; font-size: 13px; line-height: normal; font-family: &amp;quot;Helvetica Neue&amp;quot;; text-align: start;&quot; class=&quot;p1&quot;&gt;&lt;b&gt;Dietary Restrictions&lt;/b&gt;&lt;/p&gt;" style="shape=ext;margin=3;double=1;whiteSpace=wrap;html=1;align=center;" parent="1" vertex="1">
          <mxGeometry x="298" y="643" width="150" height="40" as="geometry" />
        </mxCell>
        <mxCell id="e1fa5iIgrvBEeiXZvAQY-80" value="&lt;p style=&quot;margin: 0px; font-variant-numeric: normal; font-variant-east-asian: normal; font-variant-alternates: normal; font-kerning: auto; font-optical-sizing: auto; font-feature-settings: normal; font-variation-settings: normal; font-variant-position: normal; font-stretch: normal; font-size: 13px; line-height: normal; font-family: &amp;quot;Helvetica Neue&amp;quot;; text-align: start;&quot; class=&quot;p1&quot;&gt;&lt;b&gt;Description&lt;/b&gt;&lt;/p&gt;" style="ellipse;whiteSpace=wrap;html=1;align=center;" parent="1" vertex="1">
          <mxGeometry x="385" y="730" width="100" height="40" as="geometry" />
        </mxCell>
        <mxCell id="e1fa5iIgrvBEeiXZvAQY-81" value="&lt;p style=&quot;margin: 0px; font-variant-numeric: normal; font-variant-east-asian: normal; font-variant-alternates: normal; font-kerning: auto; font-optical-sizing: auto; font-feature-settings: normal; font-variation-settings: normal; font-variant-position: normal; font-stretch: normal; font-size: 13px; line-height: normal; font-family: &amp;quot;Helvetica Neue&amp;quot;; text-align: start;&quot; class=&quot;p1&quot;&gt;&lt;b&gt;RestrictionID&lt;/b&gt;&lt;/p&gt;" style="ellipse;whiteSpace=wrap;html=1;align=center;fontStyle=4;" parent="1" vertex="1">
          <mxGeometry x="280" y="730" width="100" height="40" as="geometry" />
        </mxCell>
        <mxCell id="e1fa5iIgrvBEeiXZvAQY-93" style="edgeStyle=orthogonalEdgeStyle;rounded=0;orthogonalLoop=1;jettySize=auto;html=1;exitX=0.5;exitY=0;exitDx=0;exitDy=0;endArrow=none;endFill=0;" parent="1" source="e1fa5iIgrvBEeiXZvAQY-89" target="e1fa5iIgrvBEeiXZvAQY-90" edge="1">
          <mxGeometry relative="1" as="geometry" />
        </mxCell>
        <mxCell id="e1fa5iIgrvBEeiXZvAQY-113" style="edgeStyle=orthogonalEdgeStyle;rounded=0;orthogonalLoop=1;jettySize=auto;html=1;exitX=0.75;exitY=0;exitDx=0;exitDy=0;entryX=0;entryY=0.5;entryDx=0;entryDy=0;endArrow=none;endFill=0;" parent="1" source="e1fa5iIgrvBEeiXZvAQY-89" target="e1fa5iIgrvBEeiXZvAQY-112" edge="1">
          <mxGeometry relative="1" as="geometry" />
        </mxCell>
        <mxCell id="e1fa5iIgrvBEeiXZvAQY-89" value="&lt;p style=&quot;margin: 0px; font-variant-numeric: normal; font-variant-east-asian: normal; font-variant-alternates: normal; font-kerning: auto; font-optical-sizing: auto; font-feature-settings: normal; font-variation-settings: normal; font-variant-position: normal; font-stretch: normal; font-size: 13px; line-height: normal; font-family: &amp;quot;Helvetica Neue&amp;quot;; text-align: start;&quot; class=&quot;p1&quot;&gt;&lt;b&gt;Form&lt;/b&gt;&lt;/p&gt;" style="shape=ext;margin=3;double=1;whiteSpace=wrap;html=1;align=center;" parent="1" vertex="1">
          <mxGeometry x="920" y="300" width="100" height="40" as="geometry" />
        </mxCell>
        <mxCell id="e1fa5iIgrvBEeiXZvAQY-90" value="&lt;p style=&quot;margin: 0px; font-variant-numeric: normal; font-variant-east-asian: normal; font-variant-alternates: normal; font-kerning: auto; font-optical-sizing: auto; font-feature-settings: normal; font-variation-settings: normal; font-variant-position: normal; font-stretch: normal; font-size: 13px; line-height: normal; font-family: &amp;quot;Helvetica Neue&amp;quot;; text-align: start;&quot; class=&quot;p1&quot;&gt;&lt;b&gt;FormID&lt;/b&gt;&lt;/p&gt;" style="ellipse;whiteSpace=wrap;html=1;align=center;fontStyle=4;" parent="1" vertex="1">
          <mxGeometry x="930" y="220" width="100" height="40" as="geometry" />
        </mxCell>
        <mxCell id="e1fa5iIgrvBEeiXZvAQY-92" value="&lt;p style=&quot;margin: 0px; font-variant-numeric: normal; font-variant-east-asian: normal; font-variant-alternates: normal; font-kerning: auto; font-optical-sizing: auto; font-feature-settings: normal; font-variation-settings: normal; font-variant-position: normal; font-stretch: normal; font-size: 13px; line-height: normal; font-family: &amp;quot;Helvetica Neue&amp;quot;; text-align: start;&quot; class=&quot;p1&quot;&gt;&lt;b&gt;AttachedFiles&lt;/b&gt;&lt;/p&gt;" style="ellipse;whiteSpace=wrap;html=1;align=center;" parent="1" vertex="1">
          <mxGeometry x="1050" y="320" width="100" height="30" as="geometry" />
        </mxCell>
        <mxCell id="e1fa5iIgrvBEeiXZvAQY-95" style="edgeStyle=orthogonalEdgeStyle;rounded=0;orthogonalLoop=1;jettySize=auto;html=1;exitX=1;exitY=0.25;exitDx=0;exitDy=0;entryX=0.36;entryY=-0.033;entryDx=0;entryDy=0;entryPerimeter=0;endArrow=none;endFill=0;" parent="1" source="e1fa5iIgrvBEeiXZvAQY-89" target="e1fa5iIgrvBEeiXZvAQY-92" edge="1">
          <mxGeometry relative="1" as="geometry" />
        </mxCell>
        <mxCell id="e1fa5iIgrvBEeiXZvAQY-108" style="edgeStyle=orthogonalEdgeStyle;rounded=0;orthogonalLoop=1;jettySize=auto;html=1;exitX=0;exitY=0.5;exitDx=0;exitDy=0;endArrow=none;endFill=0;" parent="1" source="e1fa5iIgrvBEeiXZvAQY-96" target="e1fa5iIgrvBEeiXZvAQY-97" edge="1">
          <mxGeometry relative="1" as="geometry" />
        </mxCell>
        <mxCell id="e1fa5iIgrvBEeiXZvAQY-109" style="edgeStyle=orthogonalEdgeStyle;rounded=0;orthogonalLoop=1;jettySize=auto;html=1;exitX=0;exitY=0;exitDx=0;exitDy=0;entryX=1;entryY=1;entryDx=0;entryDy=0;endArrow=none;endFill=0;" parent="1" source="e1fa5iIgrvBEeiXZvAQY-96" target="e1fa5iIgrvBEeiXZvAQY-99" edge="1">
          <mxGeometry relative="1" as="geometry" />
        </mxCell>
        <mxCell id="e1fa5iIgrvBEeiXZvAQY-110" style="edgeStyle=orthogonalEdgeStyle;rounded=0;orthogonalLoop=1;jettySize=auto;html=1;exitX=0.25;exitY=0;exitDx=0;exitDy=0;endArrow=none;endFill=0;" parent="1" source="e1fa5iIgrvBEeiXZvAQY-96" target="e1fa5iIgrvBEeiXZvAQY-101" edge="1">
          <mxGeometry relative="1" as="geometry" />
        </mxCell>
        <mxCell id="e1fa5iIgrvBEeiXZvAQY-96" value="&lt;p style=&quot;margin: 0px; font-variant-numeric: normal; font-variant-east-asian: normal; font-variant-alternates: normal; font-kerning: auto; font-optical-sizing: auto; font-feature-settings: normal; font-variation-settings: normal; font-variant-position: normal; font-stretch: normal; font-size: 13px; line-height: normal; font-family: &amp;quot;Helvetica Neue&amp;quot;; text-align: start;&quot; class=&quot;p1&quot;&gt;&lt;b&gt;Posts&lt;/b&gt;&lt;/p&gt;" style="whiteSpace=wrap;html=1;align=center;" parent="1" vertex="1">
          <mxGeometry x="-446" y="-125" width="100" height="40" as="geometry" />
        </mxCell>
        <mxCell id="e1fa5iIgrvBEeiXZvAQY-97" value="&lt;p style=&quot;margin: 0px; font-variant-numeric: normal; font-variant-east-asian: normal; font-variant-alternates: normal; font-kerning: auto; font-optical-sizing: auto; font-feature-settings: normal; font-variation-settings: normal; font-variant-position: normal; font-stretch: normal; font-size: 13px; line-height: normal; font-family: &amp;quot;Helvetica Neue&amp;quot;; text-align: start;&quot; class=&quot;p1&quot;&gt;&lt;b&gt;LikeCount&lt;/b&gt;&lt;/p&gt;" style="ellipse;whiteSpace=wrap;html=1;align=center;" parent="1" vertex="1">
          <mxGeometry x="-576" y="-125" width="100" height="40" as="geometry" />
        </mxCell>
        <mxCell id="e1fa5iIgrvBEeiXZvAQY-98" value="&lt;b style=&quot;font-family: &amp;quot;Helvetica Neue&amp;quot;; font-size: 13px; text-align: start;&quot;&gt;PostID&lt;/b&gt;" style="ellipse;whiteSpace=wrap;html=1;align=center;fontStyle=4;" parent="1" vertex="1">
          <mxGeometry x="-346" y="-215" width="100" height="40" as="geometry" />
        </mxCell>
        <mxCell id="e1fa5iIgrvBEeiXZvAQY-99" value="&lt;p style=&quot;margin: 0px; font-variant-numeric: normal; font-variant-east-asian: normal; font-variant-alternates: normal; font-kerning: auto; font-optical-sizing: auto; font-feature-settings: normal; font-variation-settings: normal; font-variant-position: normal; font-stretch: normal; font-size: 13px; line-height: normal; font-family: &amp;quot;Helvetica Neue&amp;quot;; text-align: start;&quot; class=&quot;p1&quot;&gt;&lt;b&gt;Content&lt;/b&gt;&lt;/p&gt;" style="ellipse;whiteSpace=wrap;html=1;align=center;" parent="1" vertex="1">
          <mxGeometry x="-546" y="-185" width="100" height="40" as="geometry" />
        </mxCell>
        <mxCell id="e1fa5iIgrvBEeiXZvAQY-103" style="edgeStyle=orthogonalEdgeStyle;rounded=0;orthogonalLoop=1;jettySize=auto;html=1;exitX=0;exitY=0;exitDx=0;exitDy=0;entryX=0.5;entryY=1;entryDx=0;entryDy=0;endArrow=none;endFill=0;" parent="1" source="e1fa5iIgrvBEeiXZvAQY-101" target="e1fa5iIgrvBEeiXZvAQY-102" edge="1">
          <mxGeometry relative="1" as="geometry" />
        </mxCell>
        <mxCell id="e1fa5iIgrvBEeiXZvAQY-101" value="&lt;b style=&quot;font-family: &amp;quot;Helvetica Neue&amp;quot;; font-size: 13px; text-align: start;&quot;&gt;Category&lt;/b&gt;" style="ellipse;shape=doubleEllipse;margin=3;whiteSpace=wrap;html=1;align=center;" parent="1" vertex="1">
          <mxGeometry x="-476" y="-235" width="100" height="40" as="geometry" />
        </mxCell>
        <mxCell id="e1fa5iIgrvBEeiXZvAQY-102" value="&lt;p style=&quot;margin: 0px; font-variant-numeric: normal; font-variant-east-asian: normal; font-variant-alternates: normal; font-kerning: auto; font-optical-sizing: auto; font-feature-settings: normal; font-variation-settings: normal; font-variant-position: normal; font-stretch: normal; font-size: 13px; line-height: normal; font-family: &amp;quot;Helvetica Neue&amp;quot;; text-align: start;&quot; class=&quot;p1&quot;&gt;&lt;b&gt;nutrition&lt;/b&gt;&lt;/p&gt;" style="ellipse;whiteSpace=wrap;html=1;align=center;" parent="1" vertex="1">
          <mxGeometry x="-566" y="-325" width="100" height="40" as="geometry" />
        </mxCell>
        <mxCell id="e1fa5iIgrvBEeiXZvAQY-104" value="&lt;p style=&quot;margin: 0px; font-variant-numeric: normal; font-variant-east-asian: normal; font-variant-alternates: normal; font-kerning: auto; font-optical-sizing: auto; font-feature-settings: normal; font-variation-settings: normal; font-variant-position: normal; font-stretch: normal; font-size: 13px; line-height: normal; font-family: &amp;quot;Helvetica Neue&amp;quot;; text-align: start;&quot; class=&quot;p1&quot;&gt;&lt;b&gt;workouts&lt;/b&gt;&lt;/p&gt;" style="ellipse;whiteSpace=wrap;html=1;align=center;" parent="1" vertex="1">
          <mxGeometry x="-446" y="-345" width="100" height="40" as="geometry" />
        </mxCell>
        <mxCell id="e1fa5iIgrvBEeiXZvAQY-105" style="edgeStyle=orthogonalEdgeStyle;rounded=0;orthogonalLoop=1;jettySize=auto;html=1;exitX=0.5;exitY=0;exitDx=0;exitDy=0;entryX=0.3;entryY=0.925;entryDx=0;entryDy=0;entryPerimeter=0;endArrow=none;endFill=0;" parent="1" source="e1fa5iIgrvBEeiXZvAQY-101" target="e1fa5iIgrvBEeiXZvAQY-104" edge="1">
          <mxGeometry relative="1" as="geometry" />
        </mxCell>
        <mxCell id="e1fa5iIgrvBEeiXZvAQY-106" value="&lt;p style=&quot;margin: 0px; font-variant-numeric: normal; font-variant-east-asian: normal; font-variant-alternates: normal; font-kerning: auto; font-optical-sizing: auto; font-feature-settings: normal; font-variation-settings: normal; font-variant-position: normal; font-stretch: normal; font-size: 13px; line-height: normal; font-family: &amp;quot;Helvetica Neue&amp;quot;; text-align: start;&quot; class=&quot;p1&quot;&gt;&lt;b&gt;achievements&lt;/b&gt;&lt;/p&gt;" style="ellipse;whiteSpace=wrap;html=1;align=center;" parent="1" vertex="1">
          <mxGeometry x="-336" y="-305" width="100" height="40" as="geometry" />
        </mxCell>
        <mxCell id="e1fa5iIgrvBEeiXZvAQY-107" style="edgeStyle=orthogonalEdgeStyle;rounded=0;orthogonalLoop=1;jettySize=auto;html=1;exitX=1;exitY=0;exitDx=0;exitDy=0;entryX=0.3;entryY=0.75;entryDx=0;entryDy=0;entryPerimeter=0;endArrow=none;endFill=0;" parent="1" source="e1fa5iIgrvBEeiXZvAQY-101" edge="1">
          <mxGeometry relative="1" as="geometry">
            <mxPoint x="-336" y="-275" as="targetPoint" />
          </mxGeometry>
        </mxCell>
        <mxCell id="e1fa5iIgrvBEeiXZvAQY-111" style="edgeStyle=orthogonalEdgeStyle;rounded=0;orthogonalLoop=1;jettySize=auto;html=1;exitX=0.5;exitY=0;exitDx=0;exitDy=0;entryX=0.284;entryY=1.009;entryDx=0;entryDy=0;entryPerimeter=0;endArrow=none;endFill=0;" parent="1" source="e1fa5iIgrvBEeiXZvAQY-96" target="e1fa5iIgrvBEeiXZvAQY-98" edge="1">
          <mxGeometry relative="1" as="geometry">
            <mxPoint x="-371" y="-188" as="targetPoint" />
          </mxGeometry>
        </mxCell>
        <mxCell id="e1fa5iIgrvBEeiXZvAQY-112" value="&lt;b style=&quot;font-family: &amp;quot;Helvetica Neue&amp;quot;; font-size: 13px; text-align: start;&quot;&gt;FormType&lt;/b&gt;" style="ellipse;shape=doubleEllipse;margin=3;whiteSpace=wrap;html=1;align=center;" parent="1" vertex="1">
          <mxGeometry x="1050" y="250" width="100" height="40" as="geometry" />
        </mxCell>
        <mxCell id="e1fa5iIgrvBEeiXZvAQY-121" style="edgeStyle=orthogonalEdgeStyle;rounded=0;orthogonalLoop=1;jettySize=auto;html=1;exitX=0;exitY=0;exitDx=0;exitDy=0;entryX=0.5;entryY=1;entryDx=0;entryDy=0;endArrow=none;endFill=0;" parent="1" source="e1fa5iIgrvBEeiXZvAQY-119" target="e1fa5iIgrvBEeiXZvAQY-120" edge="1">
          <mxGeometry relative="1" as="geometry" />
        </mxCell>
        <mxCell id="e1fa5iIgrvBEeiXZvAQY-124" style="edgeStyle=orthogonalEdgeStyle;rounded=0;orthogonalLoop=1;jettySize=auto;html=1;exitX=0.25;exitY=0;exitDx=0;exitDy=0;entryX=0.5;entryY=1;entryDx=0;entryDy=0;endArrow=none;endFill=0;" parent="1" source="e1fa5iIgrvBEeiXZvAQY-119" target="e1fa5iIgrvBEeiXZvAQY-123" edge="1">
          <mxGeometry relative="1" as="geometry" />
        </mxCell>
        <mxCell id="e1fa5iIgrvBEeiXZvAQY-126" style="edgeStyle=orthogonalEdgeStyle;rounded=0;orthogonalLoop=1;jettySize=auto;html=1;exitX=0.5;exitY=0;exitDx=0;exitDy=0;entryX=0;entryY=1;entryDx=0;entryDy=0;endArrow=none;endFill=0;" parent="1" source="e1fa5iIgrvBEeiXZvAQY-119" target="e1fa5iIgrvBEeiXZvAQY-125" edge="1">
          <mxGeometry relative="1" as="geometry" />
        </mxCell>
        <mxCell id="e1fa5iIgrvBEeiXZvAQY-119" value="&lt;p style=&quot;margin: 0px; font-variant-numeric: normal; font-variant-east-asian: normal; font-variant-alternates: normal; font-kerning: auto; font-optical-sizing: auto; font-feature-settings: normal; font-variation-settings: normal; font-variant-position: normal; font-stretch: normal; font-size: 13px; line-height: normal; font-family: &amp;quot;Helvetica Neue&amp;quot;; text-align: start;&quot; class=&quot;p1&quot;&gt;&lt;b&gt;Nutrition progress&lt;/b&gt;&lt;/p&gt;" style="shape=ext;margin=3;double=1;whiteSpace=wrap;html=1;align=center;" parent="1" vertex="1">
          <mxGeometry x="-406" y="537" width="130" height="40" as="geometry" />
        </mxCell>
        <mxCell id="e1fa5iIgrvBEeiXZvAQY-120" value="&lt;p style=&quot;margin: 0px; font-variant-numeric: normal; font-variant-east-asian: normal; font-variant-alternates: normal; font-kerning: auto; font-optical-sizing: auto; font-feature-settings: normal; font-variation-settings: normal; font-variant-position: normal; font-stretch: normal; font-size: 13px; line-height: normal; font-family: &amp;quot;Helvetica Neue&amp;quot;; text-align: start;&quot; class=&quot;p1&quot;&gt;&lt;b&gt;ProgressID&lt;/b&gt;&lt;/p&gt;" style="ellipse;whiteSpace=wrap;html=1;align=center;fontStyle=4;" parent="1" vertex="1">
          <mxGeometry x="-521" y="449" width="100" height="40" as="geometry" />
        </mxCell>
        <mxCell id="e1fa5iIgrvBEeiXZvAQY-133" style="edgeStyle=orthogonalEdgeStyle;rounded=0;orthogonalLoop=1;jettySize=auto;html=1;exitX=0.5;exitY=0;exitDx=0;exitDy=0;endArrow=none;endFill=0;" parent="1" source="e1fa5iIgrvBEeiXZvAQY-123" target="e1fa5iIgrvBEeiXZvAQY-128" edge="1">
          <mxGeometry relative="1" as="geometry" />
        </mxCell>
        <mxCell id="e1fa5iIgrvBEeiXZvAQY-135" style="edgeStyle=orthogonalEdgeStyle;rounded=0;orthogonalLoop=1;jettySize=auto;html=1;exitX=1;exitY=0;exitDx=0;exitDy=0;entryX=0.5;entryY=1;entryDx=0;entryDy=0;endArrow=none;endFill=0;" parent="1" source="e1fa5iIgrvBEeiXZvAQY-123" target="e1fa5iIgrvBEeiXZvAQY-127" edge="1">
          <mxGeometry relative="1" as="geometry" />
        </mxCell>
        <mxCell id="e1fa5iIgrvBEeiXZvAQY-123" value="&lt;p style=&quot;margin: 0px; font-variant-numeric: normal; font-variant-east-asian: normal; font-variant-alternates: normal; font-kerning: auto; font-optical-sizing: auto; font-feature-settings: normal; font-variation-settings: normal; font-variant-position: normal; font-stretch: normal; font-size: 13px; line-height: normal; font-family: &amp;quot;Helvetica Neue&amp;quot;; text-align: start;&quot; class=&quot;p1&quot;&gt;&lt;b&gt;FoodIntakeDetails&lt;/b&gt;&lt;/p&gt;" style="ellipse;shape=doubleEllipse;margin=3;whiteSpace=wrap;html=1;align=center;" parent="1" vertex="1">
          <mxGeometry x="-483.5" y="379" width="135" height="40" as="geometry" />
        </mxCell>
        <mxCell id="e1fa5iIgrvBEeiXZvAQY-139" style="edgeStyle=orthogonalEdgeStyle;rounded=0;orthogonalLoop=1;jettySize=auto;html=1;exitX=0.5;exitY=0;exitDx=0;exitDy=0;entryX=0.5;entryY=1;entryDx=0;entryDy=0;endArrow=none;endFill=0;" parent="1" source="e1fa5iIgrvBEeiXZvAQY-125" target="e1fa5iIgrvBEeiXZvAQY-138" edge="1">
          <mxGeometry relative="1" as="geometry" />
        </mxCell>
        <mxCell id="e1fa5iIgrvBEeiXZvAQY-140" style="edgeStyle=orthogonalEdgeStyle;rounded=0;orthogonalLoop=1;jettySize=auto;html=1;exitX=1;exitY=0;exitDx=0;exitDy=0;entryX=0.5;entryY=1;entryDx=0;entryDy=0;endArrow=none;endFill=0;" parent="1" source="e1fa5iIgrvBEeiXZvAQY-125" target="e1fa5iIgrvBEeiXZvAQY-137" edge="1">
          <mxGeometry relative="1" as="geometry" />
        </mxCell>
        <mxCell id="e1fa5iIgrvBEeiXZvAQY-125" value="&lt;p style=&quot;margin: 0px; font-variant-numeric: normal; font-variant-east-asian: normal; font-variant-alternates: normal; font-kerning: auto; font-optical-sizing: auto; font-feature-settings: normal; font-variation-settings: normal; font-variant-position: normal; font-stretch: normal; font-size: 13px; line-height: normal; font-family: &amp;quot;Helvetica Neue&amp;quot;; text-align: start;&quot; class=&quot;p1&quot;&gt;&lt;b&gt;MicronutrientsDetails&lt;/b&gt;&lt;/p&gt;" style="ellipse;shape=doubleEllipse;margin=3;whiteSpace=wrap;html=1;align=center;" parent="1" vertex="1">
          <mxGeometry x="-346" y="450" width="160" height="40" as="geometry" />
        </mxCell>
        <mxCell id="e1fa5iIgrvBEeiXZvAQY-127" value="&lt;p style=&quot;margin: 0px 0px 0px 22px; font-variant-numeric: normal; font-variant-east-asian: normal; font-variant-alternates: normal; font-kerning: auto; font-optical-sizing: auto; font-feature-settings: normal; font-variation-settings: normal; font-variant-position: normal; font-stretch: normal; font-size: 13px; line-height: normal; font-family: &amp;quot;Helvetica Neue&amp;quot;; text-align: start;&quot; class=&quot;p1&quot;&gt;dinner&lt;/p&gt;" style="ellipse;whiteSpace=wrap;html=1;align=center;" parent="1" vertex="1">
          <mxGeometry x="-376" y="293" width="100" height="40" as="geometry" />
        </mxCell>
        <mxCell id="e1fa5iIgrvBEeiXZvAQY-128" value="&lt;p style=&quot;margin: 0px 0px 0px 22px; font-variant-numeric: normal; font-variant-east-asian: normal; font-variant-alternates: normal; font-kerning: auto; font-optical-sizing: auto; font-feature-settings: normal; font-variation-settings: normal; font-variant-position: normal; font-stretch: normal; font-size: 13px; line-height: normal; font-family: &amp;quot;Helvetica Neue&amp;quot;; text-align: start;&quot; class=&quot;p1&quot;&gt;lunch&lt;/p&gt;" style="ellipse;whiteSpace=wrap;html=1;align=center;" parent="1" vertex="1">
          <mxGeometry x="-456" y="253" width="100" height="40" as="geometry" />
        </mxCell>
        <mxCell id="e1fa5iIgrvBEeiXZvAQY-129" value="&lt;p style=&quot;margin: 0px 0px 0px 22px; font-variant-numeric: normal; font-variant-east-asian: normal; font-variant-alternates: normal; font-kerning: auto; font-optical-sizing: auto; font-feature-settings: normal; font-variation-settings: normal; font-variant-position: normal; font-stretch: normal; font-size: 13px; line-height: normal; font-family: &amp;quot;Helvetica Neue&amp;quot;; text-align: start;&quot; class=&quot;p1&quot;&gt;breakfast&lt;/p&gt;" style="ellipse;whiteSpace=wrap;html=1;align=center;" parent="1" vertex="1">
          <mxGeometry x="-556" y="304" width="100" height="40" as="geometry" />
        </mxCell>
        <mxCell id="e1fa5iIgrvBEeiXZvAQY-131" style="edgeStyle=orthogonalEdgeStyle;rounded=0;orthogonalLoop=1;jettySize=auto;html=1;exitX=0;exitY=0;exitDx=0;exitDy=0;entryX=0.58;entryY=1;entryDx=0;entryDy=0;entryPerimeter=0;endArrow=none;endFill=0;" parent="1" source="e1fa5iIgrvBEeiXZvAQY-123" target="e1fa5iIgrvBEeiXZvAQY-129" edge="1">
          <mxGeometry relative="1" as="geometry" />
        </mxCell>
        <mxCell id="e1fa5iIgrvBEeiXZvAQY-137" value="&lt;p style=&quot;margin: 0px 0px 0px 22px; font-variant-numeric: normal; font-variant-east-asian: normal; font-variant-alternates: normal; font-kerning: auto; font-optical-sizing: auto; font-feature-settings: normal; font-variation-settings: normal; font-variant-position: normal; font-stretch: normal; font-size: 13px; line-height: normal; font-family: &amp;quot;Helvetica Neue&amp;quot;; text-align: start;&quot; class=&quot;p1&quot;&gt;vitamins&lt;/p&gt;" style="ellipse;whiteSpace=wrap;html=1;align=center;" parent="1" vertex="1">
          <mxGeometry x="-256" y="333" width="100" height="40" as="geometry" />
        </mxCell>
        <mxCell id="e1fa5iIgrvBEeiXZvAQY-138" value="&lt;p style=&quot;margin: 0px 0px 0px 22px; font-variant-numeric: normal; font-variant-east-asian: normal; font-variant-alternates: normal; font-kerning: auto; font-optical-sizing: auto; font-feature-settings: normal; font-variation-settings: normal; font-variant-position: normal; font-stretch: normal; font-size: 13px; line-height: normal; font-family: &amp;quot;Helvetica Neue&amp;quot;; text-align: start;&quot; class=&quot;p1&quot;&gt;micros&lt;/p&gt;" style="ellipse;whiteSpace=wrap;html=1;align=center;" parent="1" vertex="1">
          <mxGeometry x="-326" y="379" width="100" height="40" as="geometry" />
        </mxCell>
        <mxCell id="e1fa5iIgrvBEeiXZvAQY-147" style="edgeStyle=orthogonalEdgeStyle;rounded=0;orthogonalLoop=1;jettySize=auto;html=1;exitX=0.75;exitY=0;exitDx=0;exitDy=0;entryX=0;entryY=1;entryDx=0;entryDy=0;endArrow=none;endFill=0;" parent="1" source="e1fa5iIgrvBEeiXZvAQY-141" target="e1fa5iIgrvBEeiXZvAQY-142" edge="1">
          <mxGeometry relative="1" as="geometry" />
        </mxCell>
        <mxCell id="e1fa5iIgrvBEeiXZvAQY-149" style="edgeStyle=orthogonalEdgeStyle;rounded=0;orthogonalLoop=1;jettySize=auto;html=1;exitX=0;exitY=0;exitDx=0;exitDy=0;entryX=0.5;entryY=1;entryDx=0;entryDy=0;endArrow=none;endFill=0;" parent="1" source="e1fa5iIgrvBEeiXZvAQY-141" target="e1fa5iIgrvBEeiXZvAQY-148" edge="1">
          <mxGeometry relative="1" as="geometry" />
        </mxCell>
        <mxCell id="e1fa5iIgrvBEeiXZvAQY-141" value="&lt;p style=&quot;margin: 0px; font-variant-numeric: normal; font-variant-east-asian: normal; font-variant-alternates: normal; font-kerning: auto; font-optical-sizing: auto; font-feature-settings: normal; font-variation-settings: normal; font-variant-position: normal; font-stretch: normal; font-size: 13px; line-height: normal; font-family: &amp;quot;Helvetica Neue&amp;quot;; text-align: start;&quot; class=&quot;p1&quot;&gt;&lt;b&gt;fitness progress&lt;/b&gt;&lt;/p&gt;" style="shape=ext;margin=3;double=1;whiteSpace=wrap;html=1;align=center;" parent="1" vertex="1">
          <mxGeometry x="210" y="-220" width="120" height="40" as="geometry" />
        </mxCell>
        <mxCell id="e1fa5iIgrvBEeiXZvAQY-142" value="&lt;p style=&quot;margin: 0px; font-variant-numeric: normal; font-variant-east-asian: normal; font-variant-alternates: normal; font-kerning: auto; font-optical-sizing: auto; font-feature-settings: normal; font-variation-settings: normal; font-variant-position: normal; font-stretch: normal; font-size: 13px; line-height: normal; font-family: &amp;quot;Helvetica Neue&amp;quot;; text-align: start;&quot; class=&quot;p1&quot;&gt;&lt;b&gt;Achievements&lt;/b&gt;&lt;/p&gt;" style="ellipse;whiteSpace=wrap;html=1;align=center;" parent="1" vertex="1">
          <mxGeometry x="317" y="-290" width="100" height="40" as="geometry" />
        </mxCell>
        <mxCell id="e1fa5iIgrvBEeiXZvAQY-143" value="&lt;p style=&quot;margin: 0px; font-variant-numeric: normal; font-variant-east-asian: normal; font-variant-alternates: normal; font-kerning: auto; font-optical-sizing: auto; font-feature-settings: normal; font-variation-settings: normal; font-variant-position: normal; font-stretch: normal; font-size: 13px; line-height: normal; font-family: &amp;quot;Helvetica Neue&amp;quot;; text-align: start;&quot; class=&quot;p1&quot;&gt;&lt;b&gt;Weight&lt;/b&gt;&lt;/p&gt;" style="ellipse;whiteSpace=wrap;html=1;align=center;" parent="1" vertex="1">
          <mxGeometry x="217" y="-330" width="100" height="40" as="geometry" />
        </mxCell>
        <mxCell id="e1fa5iIgrvBEeiXZvAQY-146" style="edgeStyle=orthogonalEdgeStyle;rounded=0;orthogonalLoop=1;jettySize=auto;html=1;exitX=0.25;exitY=0;exitDx=0;exitDy=0;entryX=0.42;entryY=0.975;entryDx=0;entryDy=0;entryPerimeter=0;endArrow=none;endFill=0;" parent="1" source="e1fa5iIgrvBEeiXZvAQY-141" target="e1fa5iIgrvBEeiXZvAQY-143" edge="1">
          <mxGeometry relative="1" as="geometry" />
        </mxCell>
        <mxCell id="e1fa5iIgrvBEeiXZvAQY-148" value="&lt;p style=&quot;margin: 0px; font-variant-numeric: normal; font-variant-east-asian: normal; font-variant-alternates: normal; font-kerning: auto; font-optical-sizing: auto; font-feature-settings: normal; font-variation-settings: normal; font-variant-position: normal; font-stretch: normal; font-size: 13px; line-height: normal; font-family: &amp;quot;Helvetica Neue&amp;quot;; text-align: start;&quot; class=&quot;p1&quot;&gt;&lt;b&gt;ProgressID&lt;/b&gt;&lt;/p&gt;" style="ellipse;whiteSpace=wrap;html=1;align=center;fontStyle=4;" parent="1" vertex="1">
          <mxGeometry x="110" y="-300" width="100" height="40" as="geometry" />
        </mxCell>
        <mxCell id="e1fa5iIgrvBEeiXZvAQY-152" style="edgeStyle=orthogonalEdgeStyle;rounded=0;orthogonalLoop=1;jettySize=auto;html=1;exitX=0;exitY=0;exitDx=0;exitDy=0;entryX=0.5;entryY=1;entryDx=0;entryDy=0;endArrow=none;endFill=0;" parent="1" source="e1fa5iIgrvBEeiXZvAQY-150" target="e1fa5iIgrvBEeiXZvAQY-151" edge="1">
          <mxGeometry relative="1" as="geometry" />
        </mxCell>
        <mxCell id="e1fa5iIgrvBEeiXZvAQY-156" style="edgeStyle=orthogonalEdgeStyle;rounded=0;orthogonalLoop=1;jettySize=auto;html=1;exitX=0.25;exitY=0;exitDx=0;exitDy=0;endArrow=none;endFill=0;" parent="1" source="e1fa5iIgrvBEeiXZvAQY-150" target="e1fa5iIgrvBEeiXZvAQY-153" edge="1">
          <mxGeometry relative="1" as="geometry" />
        </mxCell>
        <mxCell id="e1fa5iIgrvBEeiXZvAQY-157" style="edgeStyle=orthogonalEdgeStyle;rounded=0;orthogonalLoop=1;jettySize=auto;html=1;exitX=0.5;exitY=0;exitDx=0;exitDy=0;entryX=0.5;entryY=1;entryDx=0;entryDy=0;endArrow=none;endFill=0;" parent="1" source="e1fa5iIgrvBEeiXZvAQY-150" target="e1fa5iIgrvBEeiXZvAQY-155" edge="1">
          <mxGeometry relative="1" as="geometry" />
        </mxCell>
        <mxCell id="e1fa5iIgrvBEeiXZvAQY-158" style="edgeStyle=orthogonalEdgeStyle;rounded=0;orthogonalLoop=1;jettySize=auto;html=1;exitX=0.75;exitY=0;exitDx=0;exitDy=0;entryX=0;entryY=1;entryDx=0;entryDy=0;endArrow=none;endFill=0;" parent="1" source="e1fa5iIgrvBEeiXZvAQY-150" target="e1fa5iIgrvBEeiXZvAQY-154" edge="1">
          <mxGeometry relative="1" as="geometry" />
        </mxCell>
        <mxCell id="e1fa5iIgrvBEeiXZvAQY-150" value="&lt;p style=&quot;margin: 0px; font-variant-numeric: normal; font-variant-east-asian: normal; font-variant-alternates: normal; font-kerning: auto; font-optical-sizing: auto; font-feature-settings: normal; font-variation-settings: normal; font-variant-position: normal; font-stretch: normal; font-size: 13px; line-height: normal; font-family: &amp;quot;Helvetica Neue&amp;quot;; text-align: start;&quot; class=&quot;p1&quot;&gt;&lt;b&gt;Account&lt;/b&gt;&lt;/p&gt;" style="whiteSpace=wrap;html=1;align=center;" parent="1" vertex="1">
          <mxGeometry x="-130" y="-210" width="100" height="40" as="geometry" />
        </mxCell>
        <mxCell id="e1fa5iIgrvBEeiXZvAQY-151" value="&lt;p style=&quot;margin: 0px; font-variant-numeric: normal; font-variant-east-asian: normal; font-variant-alternates: normal; font-kerning: auto; font-optical-sizing: auto; font-feature-settings: normal; font-variation-settings: normal; font-variant-position: normal; font-stretch: normal; font-size: 13px; line-height: normal; font-family: &amp;quot;Helvetica Neue&amp;quot;; text-align: start;&quot; class=&quot;p1&quot;&gt;&lt;b&gt;AccountID&lt;/b&gt;&lt;/p&gt;" style="ellipse;whiteSpace=wrap;html=1;align=center;fontStyle=4;" parent="1" vertex="1">
          <mxGeometry x="-200" y="-320" width="100" height="40" as="geometry" />
        </mxCell>
        <mxCell id="e1fa5iIgrvBEeiXZvAQY-153" value="&lt;p style=&quot;margin: 0px; font-variant-numeric: normal; font-variant-east-asian: normal; font-variant-alternates: normal; font-kerning: auto; font-optical-sizing: auto; font-feature-settings: normal; font-variation-settings: normal; font-variant-position: normal; font-stretch: normal; font-size: 13px; line-height: normal; font-family: &amp;quot;Helvetica Neue&amp;quot;; text-align: start;&quot; class=&quot;p1&quot;&gt;&lt;b&gt;RecoveryEmail&lt;/b&gt;&lt;/p&gt;" style="ellipse;whiteSpace=wrap;html=1;align=center;" parent="1" vertex="1">
          <mxGeometry x="-150" y="-400" width="100" height="40" as="geometry" />
        </mxCell>
        <mxCell id="e1fa5iIgrvBEeiXZvAQY-154" value="&lt;p style=&quot;margin: 0px; font-variant-numeric: normal; font-variant-east-asian: normal; font-variant-alternates: normal; font-kerning: auto; font-optical-sizing: auto; font-feature-settings: normal; font-variation-settings: normal; font-variant-position: normal; font-stretch: normal; font-size: 13px; line-height: normal; font-family: &amp;quot;Helvetica Neue&amp;quot;; text-align: start;&quot; class=&quot;p1&quot;&gt;&lt;b&gt;ProfileUpdate&lt;/b&gt;&lt;/p&gt;" style="ellipse;whiteSpace=wrap;html=1;align=center;" parent="1" vertex="1">
          <mxGeometry x="3" y="-270" width="100" height="40" as="geometry" />
        </mxCell>
        <mxCell id="e1fa5iIgrvBEeiXZvAQY-155" value="&lt;p style=&quot;margin: 0px; font-variant-numeric: normal; font-variant-east-asian: normal; font-variant-alternates: normal; font-kerning: auto; font-optical-sizing: auto; font-feature-settings: normal; font-variation-settings: normal; font-variant-position: normal; font-stretch: normal; font-size: 13px; line-height: normal; font-family: &amp;quot;Helvetica Neue&amp;quot;; text-align: start;&quot; class=&quot;p1&quot;&gt;&lt;b&gt;Recoverypassword&lt;/b&gt;&lt;/p&gt;" style="ellipse;whiteSpace=wrap;html=1;align=center;" parent="1" vertex="1">
          <mxGeometry x="-80" y="-320" width="130" height="40" as="geometry" />
        </mxCell>
        <mxCell id="e1fa5iIgrvBEeiXZvAQY-161" style="edgeStyle=orthogonalEdgeStyle;rounded=0;orthogonalLoop=1;jettySize=auto;html=1;exitX=0;exitY=0.5;exitDx=0;exitDy=0;entryX=0.5;entryY=1;entryDx=0;entryDy=0;endArrow=ERone;endFill=0;" parent="1" source="e1fa5iIgrvBEeiXZvAQY-160" target="e1fa5iIgrvBEeiXZvAQY-150" edge="1">
          <mxGeometry relative="1" as="geometry" />
        </mxCell>
        <mxCell id="e1fa5iIgrvBEeiXZvAQY-162" style="edgeStyle=orthogonalEdgeStyle;rounded=0;orthogonalLoop=1;jettySize=auto;html=1;exitX=1;exitY=0.5;exitDx=0;exitDy=0;entryX=0;entryY=0.5;entryDx=0;entryDy=0;endArrow=ERone;endFill=0;" parent="1" source="e1fa5iIgrvBEeiXZvAQY-160" target="e1fa5iIgrvBEeiXZvAQY-1" edge="1">
          <mxGeometry relative="1" as="geometry" />
        </mxCell>
        <mxCell id="e1fa5iIgrvBEeiXZvAQY-160" value="have" style="shape=rhombus;perimeter=rhombusPerimeter;whiteSpace=wrap;html=1;align=center;" parent="1" vertex="1">
          <mxGeometry x="-30" y="-160" width="120" height="60" as="geometry" />
        </mxCell>
        <mxCell id="e1fa5iIgrvBEeiXZvAQY-163" style="edgeStyle=orthogonalEdgeStyle;rounded=0;orthogonalLoop=1;jettySize=auto;html=1;exitX=0;exitY=1;exitDx=0;exitDy=0;entryX=0.419;entryY=0.042;entryDx=0;entryDy=0;entryPerimeter=0;endArrow=none;endFill=0;" parent="1" source="e1fa5iIgrvBEeiXZvAQY-38" target="e1fa5iIgrvBEeiXZvAQY-43" edge="1">
          <mxGeometry relative="1" as="geometry" />
        </mxCell>
        <mxCell id="e1fa5iIgrvBEeiXZvAQY-164" style="edgeStyle=orthogonalEdgeStyle;rounded=0;orthogonalLoop=1;jettySize=auto;html=1;exitX=0.5;exitY=1;exitDx=0;exitDy=0;entryX=0.477;entryY=-0.005;entryDx=0;entryDy=0;entryPerimeter=0;endArrow=none;endFill=0;" parent="1" source="e1fa5iIgrvBEeiXZvAQY-38" target="e1fa5iIgrvBEeiXZvAQY-224" edge="1">
          <mxGeometry relative="1" as="geometry">
            <mxPoint x="-99.39999999999986" y="701.48" as="targetPoint" />
          </mxGeometry>
        </mxCell>
        <mxCell id="e1fa5iIgrvBEeiXZvAQY-169" style="edgeStyle=orthogonalEdgeStyle;rounded=0;orthogonalLoop=1;jettySize=auto;html=1;exitX=0.5;exitY=1;exitDx=0;exitDy=0;entryX=0.5;entryY=0;entryDx=0;entryDy=0;endArrow=ERoneToMany;endFill=0;" parent="1" source="e1fa5iIgrvBEeiXZvAQY-221" target="e1fa5iIgrvBEeiXZvAQY-38" edge="1">
          <mxGeometry relative="1" as="geometry">
            <mxPoint x="-2" y="510" as="sourcePoint" />
          </mxGeometry>
        </mxCell>
        <mxCell id="e1fa5iIgrvBEeiXZvAQY-171" style="edgeStyle=orthogonalEdgeStyle;rounded=0;orthogonalLoop=1;jettySize=auto;html=1;exitX=0.51;exitY=-0.009;exitDx=0;exitDy=0;entryX=0;entryY=0.75;entryDx=0;entryDy=0;endArrow=ERoneToMany;endFill=0;exitPerimeter=0;" parent="1" source="e1fa5iIgrvBEeiXZvAQY-221" target="e1fa5iIgrvBEeiXZvAQY-1" edge="1">
          <mxGeometry relative="1" as="geometry">
            <mxPoint x="-2" y="427" as="sourcePoint" />
          </mxGeometry>
        </mxCell>
        <mxCell id="e1fa5iIgrvBEeiXZvAQY-174" style="edgeStyle=orthogonalEdgeStyle;rounded=0;orthogonalLoop=1;jettySize=auto;html=1;entryX=0;entryY=1;entryDx=0;entryDy=0;endArrow=ERoneToMany;endFill=0;exitX=0.484;exitY=-0.002;exitDx=0;exitDy=0;exitPerimeter=0;" parent="1" source="e1fa5iIgrvBEeiXZvAQY-222" edge="1">
          <mxGeometry relative="1" as="geometry">
            <mxPoint x="120.00000000000023" y="447" as="sourcePoint" />
            <mxPoint x="349" y="330" as="targetPoint" />
          </mxGeometry>
        </mxCell>
        <mxCell id="e1fa5iIgrvBEeiXZvAQY-173" style="edgeStyle=orthogonalEdgeStyle;rounded=0;orthogonalLoop=1;jettySize=auto;html=1;exitX=0.482;exitY=1.003;exitDx=0;exitDy=0;entryX=0.37;entryY=0.028;entryDx=0;entryDy=0;entryPerimeter=0;endArrow=ERoneToMany;endFill=0;exitPerimeter=0;" parent="1" source="e1fa5iIgrvBEeiXZvAQY-222" target="e1fa5iIgrvBEeiXZvAQY-47" edge="1">
          <mxGeometry relative="1" as="geometry">
            <mxPoint x="120.00000000000023" y="520" as="sourcePoint" />
          </mxGeometry>
        </mxCell>
        <mxCell id="e1fa5iIgrvBEeiXZvAQY-176" style="edgeStyle=orthogonalEdgeStyle;rounded=0;orthogonalLoop=1;jettySize=auto;html=1;exitX=0.75;exitY=1;exitDx=0;exitDy=0;entryX=0.401;entryY=0.041;entryDx=0;entryDy=0;entryPerimeter=0;endArrow=none;endFill=0;" parent="1" source="e1fa5iIgrvBEeiXZvAQY-79" target="e1fa5iIgrvBEeiXZvAQY-80" edge="1">
          <mxGeometry relative="1" as="geometry" />
        </mxCell>
        <mxCell id="e1fa5iIgrvBEeiXZvAQY-181" style="edgeStyle=orthogonalEdgeStyle;rounded=0;orthogonalLoop=1;jettySize=auto;html=1;exitX=0.623;exitY=-0.007;exitDx=0;exitDy=0;entryX=0.25;entryY=1;entryDx=0;entryDy=0;endArrow=ERoneToMany;endFill=0;exitPerimeter=0;" parent="1" source="e1fa5iIgrvBEeiXZvAQY-213" target="e1fa5iIgrvBEeiXZvAQY-1" edge="1">
          <mxGeometry relative="1" as="geometry">
            <mxPoint x="318" y="467" as="sourcePoint" />
          </mxGeometry>
        </mxCell>
        <mxCell id="e1fa5iIgrvBEeiXZvAQY-183" style="edgeStyle=orthogonalEdgeStyle;rounded=0;orthogonalLoop=1;jettySize=auto;html=1;exitX=0;exitY=0.5;exitDx=0;exitDy=0;entryX=1;entryY=0.25;entryDx=0;entryDy=0;endArrow=ERone;endFill=0;" parent="1" source="e1fa5iIgrvBEeiXZvAQY-182" target="e1fa5iIgrvBEeiXZvAQY-1" edge="1">
          <mxGeometry relative="1" as="geometry">
            <Array as="points">
              <mxPoint x="590" y="30" />
              <mxPoint x="590" y="210" />
            </Array>
          </mxGeometry>
        </mxCell>
        <mxCell id="e1fa5iIgrvBEeiXZvAQY-184" style="edgeStyle=orthogonalEdgeStyle;rounded=0;orthogonalLoop=1;jettySize=auto;html=1;exitX=1;exitY=0.5;exitDx=0;exitDy=0;entryX=0;entryY=0.5;entryDx=0;entryDy=0;endArrow=ERone;endFill=0;" parent="1" source="e1fa5iIgrvBEeiXZvAQY-182" target="e1fa5iIgrvBEeiXZvAQY-69" edge="1">
          <mxGeometry relative="1" as="geometry" />
        </mxCell>
        <mxCell id="e1fa5iIgrvBEeiXZvAQY-182" value="&lt;p style=&quot;margin: 0px 0px 0px 22px; font-variant-numeric: normal; font-variant-east-asian: normal; font-variant-alternates: normal; font-kerning: auto; font-optical-sizing: auto; font-feature-settings: normal; font-variation-settings: normal; font-variant-position: normal; font-stretch: normal; font-size: 13px; line-height: normal; font-family: &amp;quot;Helvetica Neue&amp;quot;; text-align: start;&quot; class=&quot;p1&quot;&gt;generate&lt;/p&gt;" style="shape=rhombus;perimeter=rhombusPerimeter;whiteSpace=wrap;html=1;align=center;" parent="1" vertex="1">
          <mxGeometry x="665" y="2" width="120" height="60" as="geometry" />
        </mxCell>
        <mxCell id="e1fa5iIgrvBEeiXZvAQY-186" style="edgeStyle=orthogonalEdgeStyle;rounded=0;orthogonalLoop=1;jettySize=auto;html=1;exitX=0.5;exitY=0;exitDx=0;exitDy=0;entryX=0.5;entryY=1;entryDx=0;entryDy=0;endArrow=ERone;endFill=0;" parent="1" source="e1fa5iIgrvBEeiXZvAQY-185" target="e1fa5iIgrvBEeiXZvAQY-74" edge="1">
          <mxGeometry relative="1" as="geometry" />
        </mxCell>
        <mxCell id="e1fa5iIgrvBEeiXZvAQY-185" value="generated" style="shape=rhombus;perimeter=rhombusPerimeter;whiteSpace=wrap;html=1;align=center;" parent="1" vertex="1">
          <mxGeometry x="455" y="-66" width="120" height="60" as="geometry" />
        </mxCell>
        <mxCell id="e1fa5iIgrvBEeiXZvAQY-188" style="edgeStyle=orthogonalEdgeStyle;rounded=0;orthogonalLoop=1;jettySize=auto;html=1;exitX=0.5;exitY=1;exitDx=0;exitDy=0;entryX=1;entryY=0.063;entryDx=0;entryDy=0;entryPerimeter=0;endArrow=ERone;endFill=0;" parent="1" source="e1fa5iIgrvBEeiXZvAQY-185" target="e1fa5iIgrvBEeiXZvAQY-1" edge="1">
          <mxGeometry relative="1" as="geometry" />
        </mxCell>
        <mxCell id="e1fa5iIgrvBEeiXZvAQY-193" style="edgeStyle=orthogonalEdgeStyle;rounded=0;orthogonalLoop=1;jettySize=auto;html=1;exitX=0.005;exitY=0.579;exitDx=0;exitDy=0;entryX=1;entryY=1;entryDx=0;entryDy=0;endArrow=ERmany;endFill=0;exitPerimeter=0;" parent="1" source="e1fa5iIgrvBEeiXZvAQY-217" target="e1fa5iIgrvBEeiXZvAQY-1" edge="1">
          <mxGeometry relative="1" as="geometry">
            <mxPoint x="555" y="422" as="sourcePoint" />
            <Array as="points">
              <mxPoint x="539" y="424" />
              <mxPoint x="539" y="422" />
              <mxPoint x="439" y="422" />
              <mxPoint x="439" y="340" />
              <mxPoint x="500" y="340" />
            </Array>
          </mxGeometry>
        </mxCell>
        <mxCell id="e1fa5iIgrvBEeiXZvAQY-194" style="edgeStyle=orthogonalEdgeStyle;rounded=0;orthogonalLoop=1;jettySize=auto;html=1;entryX=0;entryY=0.5;entryDx=0;entryDy=0;endArrow=ERmany;endFill=0;" parent="1" source="e1fa5iIgrvBEeiXZvAQY-217" target="e1fa5iIgrvBEeiXZvAQY-59" edge="1">
          <mxGeometry relative="1" as="geometry">
            <mxPoint x="675" y="422" as="sourcePoint" />
          </mxGeometry>
        </mxCell>
        <mxCell id="e1fa5iIgrvBEeiXZvAQY-196" style="edgeStyle=orthogonalEdgeStyle;rounded=0;orthogonalLoop=1;jettySize=auto;html=1;exitX=1.023;exitY=0.774;exitDx=0;exitDy=0;entryX=0;entryY=0.5;entryDx=0;entryDy=0;endArrow=ERmany;endFill=0;exitPerimeter=0;" parent="1" source="e1fa5iIgrvBEeiXZvAQY-216" target="e1fa5iIgrvBEeiXZvAQY-52" edge="1">
          <mxGeometry relative="1" as="geometry">
            <mxPoint x="555" y="520" as="sourcePoint" />
          </mxGeometry>
        </mxCell>
        <mxCell id="e1fa5iIgrvBEeiXZvAQY-197" style="edgeStyle=orthogonalEdgeStyle;rounded=0;orthogonalLoop=1;jettySize=auto;html=1;exitX=-0.007;exitY=0.567;exitDx=0;exitDy=0;entryX=0.892;entryY=1.116;entryDx=0;entryDy=0;entryPerimeter=0;endArrow=ERmany;endFill=0;exitPerimeter=0;" parent="1" source="e1fa5iIgrvBEeiXZvAQY-216" edge="1">
          <mxGeometry relative="1" as="geometry">
            <mxPoint x="435" y="520" as="sourcePoint" />
            <mxPoint x="420.1900000000003" y="329.9999999999999" as="targetPoint" />
            <Array as="points">
              <mxPoint x="425" y="488" />
              <mxPoint x="407" y="488" />
              <mxPoint x="407" y="423" />
              <mxPoint x="420" y="423" />
            </Array>
          </mxGeometry>
        </mxCell>
        <mxCell id="e1fa5iIgrvBEeiXZvAQY-199" style="edgeStyle=orthogonalEdgeStyle;rounded=0;orthogonalLoop=1;jettySize=auto;html=1;exitX=1;exitY=0.5;exitDx=0;exitDy=0;entryX=0;entryY=0.5;entryDx=0;entryDy=0;endArrow=ERmany;endFill=0;" parent="1" source="e1fa5iIgrvBEeiXZvAQY-218" target="e1fa5iIgrvBEeiXZvAQY-89" edge="1">
          <mxGeometry relative="1" as="geometry">
            <mxPoint x="780" y="337" as="sourcePoint" />
          </mxGeometry>
        </mxCell>
        <mxCell id="e1fa5iIgrvBEeiXZvAQY-200" style="edgeStyle=orthogonalEdgeStyle;rounded=0;orthogonalLoop=1;jettySize=auto;html=1;exitX=-0.002;exitY=0.54;exitDx=0;exitDy=0;entryX=0.999;entryY=0.936;entryDx=0;entryDy=0;entryPerimeter=0;endArrow=ERmany;endFill=0;exitPerimeter=0;" parent="1" source="e1fa5iIgrvBEeiXZvAQY-218" target="e1fa5iIgrvBEeiXZvAQY-1" edge="1">
          <mxGeometry relative="1" as="geometry">
            <mxPoint x="670" y="337" as="sourcePoint" />
          </mxGeometry>
        </mxCell>
        <mxCell id="e1fa5iIgrvBEeiXZvAQY-203" style="edgeStyle=orthogonalEdgeStyle;rounded=0;orthogonalLoop=1;jettySize=auto;html=1;exitX=0.5;exitY=0;exitDx=0;exitDy=0;entryX=1;entryY=0.5;entryDx=0;entryDy=0;endArrow=ERoneToMany;endFill=0;" parent="1" source="e1fa5iIgrvBEeiXZvAQY-220" target="e1fa5iIgrvBEeiXZvAQY-96" edge="1">
          <mxGeometry relative="1" as="geometry">
            <mxPoint x="-30" y="-60" as="sourcePoint" />
          </mxGeometry>
        </mxCell>
        <mxCell id="e1fa5iIgrvBEeiXZvAQY-204" style="edgeStyle=orthogonalEdgeStyle;rounded=0;orthogonalLoop=1;jettySize=auto;html=1;exitX=0.531;exitY=1.014;exitDx=0;exitDy=0;entryX=0;entryY=0;entryDx=0;entryDy=0;endArrow=ERoneToMany;endFill=0;exitPerimeter=0;" parent="1" source="e1fa5iIgrvBEeiXZvAQY-220" target="e1fa5iIgrvBEeiXZvAQY-1" edge="1">
          <mxGeometry relative="1" as="geometry">
            <mxPoint x="-30" as="sourcePoint" />
          </mxGeometry>
        </mxCell>
        <mxCell id="e1fa5iIgrvBEeiXZvAQY-205" style="edgeStyle=orthogonalEdgeStyle;rounded=0;orthogonalLoop=1;jettySize=auto;html=1;exitX=0;exitY=1;exitDx=0;exitDy=0;entryX=0.424;entryY=0.002;entryDx=0;entryDy=0;entryPerimeter=0;endArrow=none;endFill=0;" parent="1" source="e1fa5iIgrvBEeiXZvAQY-5" target="e1fa5iIgrvBEeiXZvAQY-1" edge="1">
          <mxGeometry relative="1" as="geometry" />
        </mxCell>
        <mxCell id="e1fa5iIgrvBEeiXZvAQY-207" style="edgeStyle=orthogonalEdgeStyle;rounded=0;orthogonalLoop=1;jettySize=auto;html=1;exitX=0.5;exitY=0;exitDx=0;exitDy=0;entryX=0.25;entryY=1;entryDx=0;entryDy=0;endArrow=ERoneToMany;endFill=0;" parent="1" source="e1fa5iIgrvBEeiXZvAQY-206" target="e1fa5iIgrvBEeiXZvAQY-141" edge="1">
          <mxGeometry relative="1" as="geometry" />
        </mxCell>
        <mxCell id="e1fa5iIgrvBEeiXZvAQY-206" value="&lt;p style=&quot;margin: 0px 0px 0px 22px; font-variant-numeric: normal; font-variant-east-asian: normal; font-variant-alternates: normal; font-kerning: auto; font-optical-sizing: auto; font-feature-settings: normal; font-variation-settings: normal; font-variant-position: normal; font-stretch: normal; font-size: 13px; line-height: normal; font-family: &amp;quot;Helvetica Neue&amp;quot;; text-align: start;&quot; class=&quot;p1&quot;&gt;shareeditand print&lt;/p&gt;" style="shape=rhombus;perimeter=rhombusPerimeter;whiteSpace=wrap;html=1;align=center;" parent="1" vertex="1">
          <mxGeometry x="138" y="-85" width="120" height="60" as="geometry" />
        </mxCell>
        <mxCell id="e1fa5iIgrvBEeiXZvAQY-208" style="edgeStyle=orthogonalEdgeStyle;rounded=0;orthogonalLoop=1;jettySize=auto;html=1;exitX=0.5;exitY=1;exitDx=0;exitDy=0;entryX=0.129;entryY=-0.008;entryDx=0;entryDy=0;entryPerimeter=0;endArrow=ERone;endFill=0;" parent="1" source="e1fa5iIgrvBEeiXZvAQY-206" target="e1fa5iIgrvBEeiXZvAQY-1" edge="1">
          <mxGeometry relative="1" as="geometry" />
        </mxCell>
        <mxCell id="e1fa5iIgrvBEeiXZvAQY-211" style="edgeStyle=orthogonalEdgeStyle;rounded=0;orthogonalLoop=1;jettySize=auto;html=1;exitX=0.5;exitY=1;exitDx=0;exitDy=0;entryX=1;entryY=0.25;entryDx=0;entryDy=0;endArrow=ERoneToMany;endFill=0;" parent="1" source="e1fa5iIgrvBEeiXZvAQY-209" target="e1fa5iIgrvBEeiXZvAQY-119" edge="1">
          <mxGeometry relative="1" as="geometry">
            <Array as="points">
              <mxPoint x="-170" y="410" />
              <mxPoint x="-170" y="547" />
            </Array>
          </mxGeometry>
        </mxCell>
        <mxCell id="e1fa5iIgrvBEeiXZvAQY-212" style="edgeStyle=orthogonalEdgeStyle;rounded=0;orthogonalLoop=1;jettySize=auto;html=1;exitX=0.5;exitY=0;exitDx=0;exitDy=0;entryX=0;entryY=0.25;entryDx=0;entryDy=0;endArrow=ERone;endFill=0;" parent="1" source="e1fa5iIgrvBEeiXZvAQY-209" target="e1fa5iIgrvBEeiXZvAQY-1" edge="1">
          <mxGeometry relative="1" as="geometry" />
        </mxCell>
        <mxCell id="e1fa5iIgrvBEeiXZvAQY-209" value="&lt;span style=&quot;font-family: &amp;quot;Helvetica Neue&amp;quot;; font-size: 13px; text-align: start;&quot;&gt;share, edit and print&lt;/span&gt;" style="shape=rhombus;perimeter=rhombusPerimeter;whiteSpace=wrap;html=1;align=center;" parent="1" vertex="1">
          <mxGeometry x="-177" y="244" width="120" height="60" as="geometry" />
        </mxCell>
        <mxCell id="e1fa5iIgrvBEeiXZvAQY-213" value="Write&amp;nbsp;" style="shape=associativeEntity;whiteSpace=wrap;html=1;align=center;" parent="1" vertex="1">
          <mxGeometry x="230" y="467" width="140" height="60" as="geometry" />
        </mxCell>
        <mxCell id="e1fa5iIgrvBEeiXZvAQY-215" style="edgeStyle=orthogonalEdgeStyle;rounded=0;orthogonalLoop=1;jettySize=auto;html=1;exitX=0.5;exitY=1;exitDx=0;exitDy=0;entryX=0.276;entryY=0.012;entryDx=0;entryDy=0;entryPerimeter=0;endArrow=ERoneToMany;endFill=0;" parent="1" source="e1fa5iIgrvBEeiXZvAQY-213" target="e1fa5iIgrvBEeiXZvAQY-79" edge="1">
          <mxGeometry relative="1" as="geometry" />
        </mxCell>
        <mxCell id="e1fa5iIgrvBEeiXZvAQY-216" value="view" style="shape=associativeEntity;whiteSpace=wrap;html=1;align=center;" parent="1" vertex="1">
          <mxGeometry x="439" y="527" width="140" height="60" as="geometry" />
        </mxCell>
        <mxCell id="e1fa5iIgrvBEeiXZvAQY-217" value="view" style="shape=associativeEntity;whiteSpace=wrap;html=1;align=center;" parent="1" vertex="1">
          <mxGeometry x="545" y="389" width="140" height="60" as="geometry" />
        </mxCell>
        <mxCell id="e1fa5iIgrvBEeiXZvAQY-218" value="&lt;span style=&quot;font-family: &amp;quot;Helvetica Neue&amp;quot;; font-size: 13px; text-align: start;&quot;&gt;submit&lt;/span&gt;" style="shape=associativeEntity;whiteSpace=wrap;html=1;align=center;" parent="1" vertex="1">
          <mxGeometry x="665" y="300" width="140" height="60" as="geometry" />
        </mxCell>
        <mxCell id="e1fa5iIgrvBEeiXZvAQY-219" value="" style="edgeStyle=orthogonalEdgeStyle;rounded=0;orthogonalLoop=1;jettySize=auto;html=1;exitX=0.5;exitY=0;exitDx=0;exitDy=0;entryX=1;entryY=0.5;entryDx=0;entryDy=0;endArrow=ERoneToMany;endFill=0;" parent="1" target="e1fa5iIgrvBEeiXZvAQY-220" edge="1">
          <mxGeometry relative="1" as="geometry">
            <mxPoint x="-30" y="-60" as="sourcePoint" />
            <mxPoint x="-346" y="-105" as="targetPoint" />
          </mxGeometry>
        </mxCell>
        <mxCell id="e1fa5iIgrvBEeiXZvAQY-220" value="&lt;span style=&quot;font-family: &amp;quot;Helvetica Neue&amp;quot;; font-size: 13px; text-align: start;&quot;&gt;LikeandView&lt;/span&gt;" style="shape=associativeEntity;whiteSpace=wrap;html=1;align=center;" parent="1" vertex="1">
          <mxGeometry x="-132" y="-90" width="140" height="60" as="geometry" />
        </mxCell>
        <mxCell id="e1fa5iIgrvBEeiXZvAQY-221" value="choose" style="shape=associativeEntity;whiteSpace=wrap;html=1;align=center;" parent="1" vertex="1">
          <mxGeometry x="-80" y="397" width="140" height="60" as="geometry" />
        </mxCell>
        <mxCell id="e1fa5iIgrvBEeiXZvAQY-222" value="choose" style="shape=associativeEntity;whiteSpace=wrap;html=1;align=center;" parent="1" vertex="1">
          <mxGeometry x="72" y="457" width="140" height="60" as="geometry" />
        </mxCell>
        <mxCell id="e1fa5iIgrvBEeiXZvAQY-223" value="Name" style="ellipse;shape=doubleEllipse;margin=3;whiteSpace=wrap;html=1;align=center;" parent="1" vertex="1">
          <mxGeometry x="150" y="750" width="100" height="40" as="geometry" />
        </mxCell>
        <mxCell id="e1fa5iIgrvBEeiXZvAQY-224" value="name" style="ellipse;shape=doubleEllipse;margin=3;whiteSpace=wrap;html=1;align=center;" parent="1" vertex="1">
          <mxGeometry x="-147" y="710" width="100" height="40" as="geometry" />
        </mxCell>
        <mxCell id="e1fa5iIgrvBEeiXZvAQY-230" style="edgeStyle=orthogonalEdgeStyle;rounded=0;orthogonalLoop=1;jettySize=auto;html=1;exitX=0.5;exitY=0;exitDx=0;exitDy=0;entryX=1;entryY=0.25;entryDx=0;entryDy=0;endArrow=ERmandOne;endFill=0;" parent="1" source="e1fa5iIgrvBEeiXZvAQY-229" target="e1fa5iIgrvBEeiXZvAQY-69" edge="1">
          <mxGeometry relative="1" as="geometry" />
        </mxCell>
        <mxCell id="e1fa5iIgrvBEeiXZvAQY-231" style="edgeStyle=orthogonalEdgeStyle;rounded=0;orthogonalLoop=1;jettySize=auto;html=1;exitX=0.5;exitY=1;exitDx=0;exitDy=0;entryX=1;entryY=0.75;entryDx=0;entryDy=0;endArrow=ERmany;endFill=0;" parent="1" source="e1fa5iIgrvBEeiXZvAQY-229" target="e1fa5iIgrvBEeiXZvAQY-52" edge="1">
          <mxGeometry relative="1" as="geometry" />
        </mxCell>
        <mxCell id="e1fa5iIgrvBEeiXZvAQY-229" value="Contain&amp;nbsp;" style="shape=rhombus;perimeter=rhombusPerimeter;whiteSpace=wrap;html=1;align=center;" parent="1" vertex="1">
          <mxGeometry x="1270" y="190" width="120" height="60" as="geometry" />
        </mxCell>
        <mxCell id="e1fa5iIgrvBEeiXZvAQY-233" style="edgeStyle=orthogonalEdgeStyle;rounded=0;orthogonalLoop=1;jettySize=auto;html=1;exitX=0.5;exitY=1;exitDx=0;exitDy=0;entryX=1;entryY=0.75;entryDx=0;entryDy=0;endArrow=ERmany;endFill=0;" parent="1" source="e1fa5iIgrvBEeiXZvAQY-232" target="e1fa5iIgrvBEeiXZvAQY-59" edge="1">
          <mxGeometry relative="1" as="geometry" />
        </mxCell>
        <mxCell id="e1fa5iIgrvBEeiXZvAQY-234" style="edgeStyle=orthogonalEdgeStyle;rounded=0;orthogonalLoop=1;jettySize=auto;html=1;exitX=0.5;exitY=0;exitDx=0;exitDy=0;endArrow=ERmandOne;endFill=0;" parent="1" source="e1fa5iIgrvBEeiXZvAQY-232" target="e1fa5iIgrvBEeiXZvAQY-74" edge="1">
          <mxGeometry relative="1" as="geometry" />
        </mxCell>
        <mxCell id="e1fa5iIgrvBEeiXZvAQY-232" value="Relationship" style="shape=rhombus;perimeter=rhombusPerimeter;whiteSpace=wrap;html=1;align=center;" parent="1" vertex="1">
          <mxGeometry x="1155" y="-230" width="120" height="60" as="geometry" />
        </mxCell>
        <mxCell id="e1fa5iIgrvBEeiXZvAQY-235" style="edgeStyle=orthogonalEdgeStyle;rounded=0;orthogonalLoop=1;jettySize=auto;html=1;exitX=0;exitY=0;exitDx=0;exitDy=0;endArrow=none;endFill=0;" parent="1" source="e1fa5iIgrvBEeiXZvAQY-237" target="e1fa5iIgrvBEeiXZvAQY-238" edge="1">
          <mxGeometry relative="1" as="geometry" />
        </mxCell>
        <mxCell id="e1fa5iIgrvBEeiXZvAQY-236" style="edgeStyle=orthogonalEdgeStyle;rounded=0;orthogonalLoop=1;jettySize=auto;html=1;exitX=0.5;exitY=0;exitDx=0;exitDy=0;entryX=0.5;entryY=1;entryDx=0;entryDy=0;endArrow=none;endFill=0;" parent="1" source="e1fa5iIgrvBEeiXZvAQY-237" target="e1fa5iIgrvBEeiXZvAQY-239" edge="1">
          <mxGeometry relative="1" as="geometry" />
        </mxCell>
        <mxCell id="e1fa5iIgrvBEeiXZvAQY-237" value="&lt;p style=&quot;margin: 0px; font-variant-numeric: normal; font-variant-east-asian: normal; font-variant-alternates: normal; font-kerning: auto; font-optical-sizing: auto; font-feature-settings: normal; font-variation-settings: normal; font-variant-position: normal; font-stretch: normal; font-size: 13px; line-height: normal; font-family: &amp;quot;Helvetica Neue&amp;quot;; text-align: start;&quot; class=&quot;p1&quot;&gt;&lt;b&gt;Article&lt;/b&gt;&lt;/p&gt;" style="shape=ext;margin=3;double=1;whiteSpace=wrap;html=1;align=center;" parent="1" vertex="1">
          <mxGeometry x="-262" y="911" width="100" height="40" as="geometry" />
        </mxCell>
        <mxCell id="e1fa5iIgrvBEeiXZvAQY-238" value="&lt;p style=&quot;margin: 0px; font-variant-numeric: normal; font-variant-east-asian: normal; font-variant-alternates: normal; font-kerning: auto; font-optical-sizing: auto; font-feature-settings: normal; font-variation-settings: normal; font-variant-position: normal; font-stretch: normal; font-size: 13px; line-height: normal; font-family: &amp;quot;Helvetica Neue&amp;quot;; text-align: start;&quot; class=&quot;p1&quot;&gt;&lt;b&gt;ArticleID&lt;span class=&quot;Apple-converted-space&quot;&gt;&amp;nbsp;&lt;/span&gt;&lt;/b&gt;&lt;/p&gt;" style="ellipse;whiteSpace=wrap;html=1;align=center;fontStyle=4;" parent="1" vertex="1">
          <mxGeometry x="-332" y="811" width="100" height="42" as="geometry" />
        </mxCell>
        <mxCell id="e1fa5iIgrvBEeiXZvAQY-239" value="&lt;p style=&quot;margin: 0px; font-variant-numeric: normal; font-variant-east-asian: normal; font-variant-alternates: normal; font-kerning: auto; font-optical-sizing: auto; font-feature-settings: normal; font-variation-settings: normal; font-variant-position: normal; font-stretch: normal; font-size: 13px; line-height: normal; font-family: &amp;quot;Helvetica Neue&amp;quot;; text-align: start;&quot; class=&quot;p1&quot;&gt;&lt;b&gt;Content&lt;/b&gt;&lt;/p&gt;" style="ellipse;whiteSpace=wrap;html=1;align=center;" parent="1" vertex="1">
          <mxGeometry x="-222" y="811" width="100" height="40" as="geometry" />
        </mxCell>
        <mxCell id="e1fa5iIgrvBEeiXZvAQY-241" style="edgeStyle=orthogonalEdgeStyle;rounded=0;orthogonalLoop=1;jettySize=auto;html=1;exitX=1;exitY=0;exitDx=0;exitDy=0;entryX=0;entryY=0.25;entryDx=0;entryDy=0;endArrow=ERmandOne;endFill=0;" parent="1" source="e1fa5iIgrvBEeiXZvAQY-240" target="e1fa5iIgrvBEeiXZvAQY-47" edge="1">
          <mxGeometry relative="1" as="geometry" />
        </mxCell>
        <mxCell id="e1fa5iIgrvBEeiXZvAQY-242" style="edgeStyle=orthogonalEdgeStyle;rounded=0;orthogonalLoop=1;jettySize=auto;html=1;exitX=0;exitY=0;exitDx=0;exitDy=0;entryX=1;entryY=0.5;entryDx=0;entryDy=0;endArrow=ERmandOne;endFill=0;" parent="1" source="e1fa5iIgrvBEeiXZvAQY-240" target="e1fa5iIgrvBEeiXZvAQY-38" edge="1">
          <mxGeometry relative="1" as="geometry" />
        </mxCell>
        <mxCell id="e1fa5iIgrvBEeiXZvAQY-244" style="edgeStyle=orthogonalEdgeStyle;rounded=0;orthogonalLoop=1;jettySize=auto;html=1;exitX=0.5;exitY=1;exitDx=0;exitDy=0;entryX=1;entryY=0.5;entryDx=0;entryDy=0;endArrow=ERmany;endFill=0;" parent="1" source="e1fa5iIgrvBEeiXZvAQY-240" target="e1fa5iIgrvBEeiXZvAQY-237" edge="1">
          <mxGeometry relative="1" as="geometry" />
        </mxCell>
        <mxCell id="e1fa5iIgrvBEeiXZvAQY-240" value="contain" style="shape=rhombus;perimeter=rhombusPerimeter;whiteSpace=wrap;html=1;align=center;" parent="1" vertex="1">
          <mxGeometry x="-90" y="840" width="120" height="60" as="geometry" />
        </mxCell>
        <mxCell id="e1fa5iIgrvBEeiXZvAQY-252" style="edgeStyle=orthogonalEdgeStyle;rounded=0;orthogonalLoop=1;jettySize=auto;html=1;exitX=1;exitY=0.5;exitDx=0;exitDy=0;entryX=0.5;entryY=1;entryDx=0;entryDy=0;endArrow=ERmany;endFill=0;" parent="1" source="e1fa5iIgrvBEeiXZvAQY-245" target="e1fa5iIgrvBEeiXZvAQY-59" edge="1">
          <mxGeometry relative="1" as="geometry" />
        </mxCell>
        <mxCell id="e1fa5iIgrvBEeiXZvAQY-253" style="edgeStyle=orthogonalEdgeStyle;rounded=0;orthogonalLoop=1;jettySize=auto;html=1;exitX=0;exitY=0.5;exitDx=0;exitDy=0;entryX=0.75;entryY=0;entryDx=0;entryDy=0;endArrow=ERmandOne;endFill=0;" parent="1" source="e1fa5iIgrvBEeiXZvAQY-245" target="e1fa5iIgrvBEeiXZvAQY-38" edge="1">
          <mxGeometry relative="1" as="geometry">
            <Array as="points">
              <mxPoint x="580" y="760" />
              <mxPoint x="580" y="603" />
              <mxPoint x="-80" y="603" />
            </Array>
          </mxGeometry>
        </mxCell>
        <mxCell id="e1fa5iIgrvBEeiXZvAQY-245" value="has" style="shape=rhombus;perimeter=rhombusPerimeter;whiteSpace=wrap;html=1;align=center;" parent="1" vertex="1">
          <mxGeometry x="870" y="730" width="120" height="60" as="geometry" />
        </mxCell>
        <mxCell id="e1fa5iIgrvBEeiXZvAQY-248" style="edgeStyle=orthogonalEdgeStyle;rounded=0;orthogonalLoop=1;jettySize=auto;html=1;exitX=0;exitY=0.5;exitDx=0;exitDy=0;entryX=1;entryY=0.5;entryDx=0;entryDy=0;endArrow=ERmandOne;endFill=0;" parent="1" source="e1fa5iIgrvBEeiXZvAQY-246" target="e1fa5iIgrvBEeiXZvAQY-47" edge="1">
          <mxGeometry relative="1" as="geometry">
            <Array as="points">
              <mxPoint x="260" y="832" />
              <mxPoint x="260" y="656" />
            </Array>
          </mxGeometry>
        </mxCell>
        <mxCell id="e1fa5iIgrvBEeiXZvAQY-250" style="edgeStyle=orthogonalEdgeStyle;rounded=0;orthogonalLoop=1;jettySize=auto;html=1;exitX=1;exitY=0.5;exitDx=0;exitDy=0;entryX=0.5;entryY=1;entryDx=0;entryDy=0;endArrow=ERmany;endFill=0;" parent="1" source="e1fa5iIgrvBEeiXZvAQY-246" target="e1fa5iIgrvBEeiXZvAQY-52" edge="1">
          <mxGeometry relative="1" as="geometry" />
        </mxCell>
        <mxCell id="e1fa5iIgrvBEeiXZvAQY-246" value="has" style="shape=rhombus;perimeter=rhombusPerimeter;whiteSpace=wrap;html=1;align=center;" parent="1" vertex="1">
          <mxGeometry x="425" y="802" width="120" height="60" as="geometry" />
        </mxCell>
      </root>
    </mxGraphModel>
  </diagram>
</mxfile>
